<?xml version="1.0"?>
<svg xmlns="http://www.w3.org/2000/svg"
xmlns:xlink="http://www.w3.org/1999/xlink" xmlns:cml="http://www.xml-cml.org/schema" width="582.671" height="368.711" x="0" y="0" font-family="sans-serif" stroke="rgb(0,0,0)" stroke-width="1"  stroke-linecap="round">
<rect x="0%" y="0%" width="100%" height="100%" stroke-width="0" fill="rgb(255,255,255)"  />
<line x1="161.7" y1="290.7" x2="161.7" y2="315.7" stroke="rgb(0,0,0)"  stroke-width="1.0"/>
<polygon points="116.000000 173.569228 93.535898 142.660263 100.464102 138.660263 " stroke-width="1.000000" fill="rgb(0,0,0)"  stroke="rgb(0,0,0)" />
<line x1="59.0" y1="74.8" x2="46.5" y2="53.2" stroke="rgb(0,0,0)"  stroke-width="1.0"/>
<line x1="153.8" y1="177.5" x2="204.6" y2="121.1" stroke="rgb(0,0,0)"  stroke-width="1.0"/>
<line x1="201.8" y1="122.0" x2="194.1" y2="98.2" stroke="rgb(0,0,0)"  stroke-width="1.0"/>
<line x1="207.5" y1="120.1" x2="199.8" y2="96.4" stroke="rgb(0,0,0)"  stroke-width="1.0"/>
<line x1="205.3" y1="118.1" x2="242.4" y2="126.0" stroke="rgb(0,0,0)"  stroke-width="1.0"/>
<line x1="204.0" y1="124.0" x2="241.2" y2="131.9" stroke="rgb(0,0,0)"  stroke-width="1.0"/>
<line x1="316.2" y1="144.8" x2="340.6" y2="150.0" stroke="rgb(0,0,0)"  stroke-width="1.0"/>
<line x1="362.0" y1="143.0" x2="378.8" y2="124.4" stroke="rgb(0,0,0)"  stroke-width="1.0"/>
<line x1="378.8" y1="124.4" x2="415.9" y2="132.3" stroke="rgb(0,0,0)"  stroke-width="1.0"/>
<line x1="415.9" y1="132.3" x2="458.1" y2="85.5" stroke="rgb(0,0,0)"  stroke-width="1.0"/>
<line x1="105.8" y1="196.4" x2="116.0" y2="173.6" stroke="rgb(0,0,0)"  stroke-width="1.0"/>
<line x1="116.0" y1="173.6" x2="153.8" y2="177.5" stroke="rgb(0,0,0)"  stroke-width="1.0"/>
<line x1="153.8" y1="177.5" x2="161.7" y2="214.7" stroke="rgb(0,0,0)"  stroke-width="1.0"/>
<line x1="148.0" y1="184.9" x2="153.4" y2="210.3" stroke="rgb(0,0,0)"  stroke-width="1.0"/>
<line x1="161.7" y1="214.7" x2="128.8" y2="233.7" stroke="rgb(0,0,0)"  stroke-width="1.0"/>
<line x1="152.9" y1="211.5" x2="130.4" y2="224.5" stroke="rgb(0,0,0)"  stroke-width="1.0"/>
<line x1="128.8" y1="233.7" x2="110.2" y2="217.0" stroke="rgb(0,0,0)"  stroke-width="1.0"/>
<line x1="194.6" y1="233.7" x2="194.6" y2="271.7" stroke="rgb(0,0,0)"  stroke-width="1.0"/>
<line x1="187.4" y1="239.7" x2="187.4" y2="265.7" stroke="rgb(0,0,0)"  stroke-width="1.0"/>
<line x1="194.6" y1="271.7" x2="161.7" y2="290.7" stroke="rgb(0,0,0)"  stroke-width="1.0"/>
<line x1="185.8" y1="268.5" x2="163.3" y2="281.5" stroke="rgb(0,0,0)"  stroke-width="1.0"/>
<line x1="161.7" y1="290.7" x2="128.8" y2="271.7" stroke="rgb(0,0,0)"  stroke-width="1.0"/>
<line x1="160.1" y1="281.5" x2="137.6" y2="268.5" stroke="rgb(0,0,0)"  stroke-width="1.0"/>
<line x1="128.8" y1="271.7" x2="128.8" y2="233.7" stroke="rgb(0,0,0)"  stroke-width="1.0"/>
<line x1="136.0" y1="265.7" x2="136.0" y2="239.7" stroke="rgb(0,0,0)"  stroke-width="1.0"/>
<line x1="161.7" y1="214.7" x2="194.6" y2="233.7" stroke="rgb(0,0,0)"  stroke-width="1.0"/>
<line x1="163.3" y1="223.9" x2="185.8" y2="236.9" stroke="rgb(0,0,0)"  stroke-width="1.0"/>
<line x1="97.0" y1="140.7" x2="59.0" y2="140.7" stroke="rgb(0,0,0)"  stroke-width="1.0"/>
<line x1="91.0" y1="133.5" x2="65.0" y2="133.5" stroke="rgb(0,0,0)"  stroke-width="1.0"/>
<line x1="59.0" y1="140.7" x2="40.0" y2="107.8" stroke="rgb(0,0,0)"  stroke-width="1.0"/>
<line x1="62.2" y1="131.9" x2="49.2" y2="109.3" stroke="rgb(0,0,0)"  stroke-width="1.0"/>
<line x1="40.0" y1="107.8" x2="59.0" y2="74.8" stroke="rgb(0,0,0)"  stroke-width="1.0"/>
<line x1="49.2" y1="106.2" x2="62.2" y2="83.6" stroke="rgb(0,0,0)"  stroke-width="1.0"/>
<line x1="59.0" y1="74.8" x2="97.0" y2="74.8" stroke="rgb(0,0,0)"  stroke-width="1.0"/>
<line x1="65.0" y1="82.0" x2="91.0" y2="82.0" stroke="rgb(0,0,0)"  stroke-width="1.0"/>
<line x1="97.0" y1="74.8" x2="116.0" y2="107.8" stroke="rgb(0,0,0)"  stroke-width="1.0"/>
<line x1="93.8" y1="83.6" x2="106.8" y2="106.2" stroke="rgb(0,0,0)"  stroke-width="1.0"/>
<line x1="116.0" y1="107.8" x2="97.0" y2="140.7" stroke="rgb(0,0,0)"  stroke-width="1.0"/>
<line x1="106.8" y1="109.3" x2="93.8" y2="131.9" stroke="rgb(0,0,0)"  stroke-width="1.0"/>
<line x1="241.8" y1="129.0" x2="253.6" y2="165.1" stroke="rgb(0,0,0)"  stroke-width="1.0"/>
<line x1="250.5" y1="132.4" x2="258.6" y2="157.2" stroke="rgb(0,0,0)"  stroke-width="1.0"/>
<line x1="253.6" y1="165.1" x2="290.7" y2="173.0" stroke="rgb(0,0,0)"  stroke-width="1.0"/>
<line x1="260.9" y1="159.3" x2="286.4" y2="164.7" stroke="rgb(0,0,0)"  stroke-width="1.0"/>
<line x1="290.7" y1="173.0" x2="316.2" y2="144.8" stroke="rgb(0,0,0)"  stroke-width="1.0"/>
<line x1="289.4" y1="163.7" x2="306.8" y2="144.4" stroke="rgb(0,0,0)"  stroke-width="1.0"/>
<line x1="316.2" y1="144.8" x2="304.4" y2="108.6" stroke="rgb(0,0,0)"  stroke-width="1.0"/>
<line x1="307.5" y1="141.3" x2="299.4" y2="116.6" stroke="rgb(0,0,0)"  stroke-width="1.0"/>
<line x1="304.4" y1="108.6" x2="267.2" y2="100.7" stroke="rgb(0,0,0)"  stroke-width="1.0"/>
<line x1="297.0" y1="114.4" x2="271.6" y2="109.0" stroke="rgb(0,0,0)"  stroke-width="1.0"/>
<line x1="267.2" y1="100.7" x2="241.8" y2="129.0" stroke="rgb(0,0,0)"  stroke-width="1.0"/>
<line x1="268.6" y1="110.0" x2="251.2" y2="129.3" stroke="rgb(0,0,0)"  stroke-width="1.0"/>
<line x1="472.7" y1="64.3" x2="484.0" y2="42.0" stroke="rgb(0,0,0)"  stroke-width="1.0"/>
<line x1="484.0" y1="42.0" x2="522.0" y2="40.0" stroke="rgb(0,0,0)"  stroke-width="1.0"/>
<line x1="522.0" y1="40.0" x2="542.7" y2="71.9" stroke="rgb(0,0,0)"  stroke-width="1.0"/>
<line x1="542.7" y1="71.9" x2="525.4" y2="105.7" stroke="rgb(0,0,0)"  stroke-width="1.0"/>
<line x1="525.4" y1="105.7" x2="487.5" y2="107.7" stroke="rgb(0,0,0)"  stroke-width="1.0"/>
<line x1="487.5" y1="107.7" x2="473.9" y2="86.7" stroke="rgb(0,0,0)"  stroke-width="1.0"/>
<text x="155.692476" y="336.710919" fill="rgb(255,12,12)"  stroke="rgb(255,12,12)" stroke-width="1" font-size="16" >OH</text>
<text x="94.544008" y="216.283956" fill="rgb(178,178,0)"  stroke="rgb(178,178,0)" stroke-width="1" font-size="16" >S</text>
<text x="22.000000" y="49.933367" fill="rgb(255,12,12)"  stroke="rgb(255,12,12)" stroke-width="1" font-size="16" >HO</text>
<text x="186.903112" y="92.922155" fill="rgb(255,12,12)"  stroke="rgb(255,12,12)" stroke-width="1" font-size="16" >O</text>
<text x="347.324193" y="160.664880" fill="rgb(255,12,12)"  stroke="rgb(255,12,12)" stroke-width="1" font-size="16" >O</text>
<text x="460.774691" y="83.847014" fill="rgb(12,12,255)"  stroke="rgb(12,12,255)" stroke-width="1" font-size="16" >N</text>
<title> - OBDepict</title>
</svg>
