<?xml version="1.0"?>
<svg xmlns="http://www.w3.org/2000/svg"
xmlns:xlink="http://www.w3.org/1999/xlink" xmlns:cml="http://www.xml-cml.org/schema" width="599.615" height="420" x="0" y="0" font-family="sans-serif" stroke="rgb(0,0,0)" stroke-width="1"  stroke-linecap="round">
<rect x="0%" y="0%" width="100%" height="100%" stroke-width="0" fill="rgb(255,255,255)"  />
<line x1="282.5" y1="260.0" x2="282.5" y2="220.0" stroke="rgb(0,0,0)"  stroke-width="1.0"/>
<line x1="317.1" y1="160.0" x2="351.8" y2="140.0" stroke="rgb(0,0,0)"  stroke-width="1.0"/>
<line x1="383.4" y1="80.0" x2="383.4" y2="53.0" stroke="rgb(0,0,0)"  stroke-width="1.0"/>
<line x1="389.4" y1="80.0" x2="389.4" y2="53.0" stroke="rgb(0,0,0)"  stroke-width="1.0"/>
<line x1="455.7" y1="80.0" x2="455.7" y2="53.0" stroke="rgb(0,0,0)"  stroke-width="1.0"/>
<line x1="490.3" y1="140.0" x2="513.7" y2="153.5" stroke="rgb(0,0,0)"  stroke-width="1.0"/>
<line x1="536.2" y1="153.5" x2="559.6" y2="140.0" stroke="rgb(0,0,0)"  stroke-width="1.0"/>
<line x1="247.8" y1="200.0" x2="224.5" y2="213.5" stroke="rgb(0,0,0)"  stroke-width="1.0"/>
<line x1="201.9" y1="213.5" x2="178.6" y2="200.0" stroke="rgb(0,0,0)"  stroke-width="1.0"/>
<line x1="317.1" y1="280.0" x2="340.5" y2="266.5" stroke="rgb(0,0,0)"  stroke-width="1.0"/>
<line x1="282.5" y1="340.0" x2="282.5" y2="367.0" stroke="rgb(0,0,0)"  stroke-width="1.0"/>
<line x1="216.2" y1="340.0" x2="216.2" y2="367.0" stroke="rgb(0,0,0)"  stroke-width="1.0"/>
<line x1="210.2" y1="340.0" x2="210.2" y2="367.0" stroke="rgb(0,0,0)"  stroke-width="1.0"/>
<line x1="178.6" y1="280.0" x2="143.9" y2="260.0" stroke="rgb(0,0,0)"  stroke-width="1.0"/>
<line x1="74.6" y1="220.0" x2="51.3" y2="206.5" stroke="rgb(0,0,0)"  stroke-width="1.0"/>
<line x1="40.0" y1="187.0" x2="40.0" y2="160.0" stroke="rgb(0,0,0)"  stroke-width="1.0"/>
<line x1="351.8" y1="140.0" x2="375.2" y2="153.5" stroke="rgb(0,0,0)"  stroke-width="1.0"/>
<line x1="397.7" y1="153.5" x2="421.1" y2="140.0" stroke="rgb(0,0,0)"  stroke-width="1.0"/>
<line x1="421.1" y1="140.0" x2="421.1" y2="100.0" stroke="rgb(0,0,0)"  stroke-width="1.0"/>
<line x1="421.1" y1="100.0" x2="386.4" y2="80.0" stroke="rgb(0,0,0)"  stroke-width="1.0"/>
<line x1="386.4" y1="80.0" x2="351.8" y2="100.0" stroke="rgb(0,0,0)"  stroke-width="1.0"/>
<line x1="351.8" y1="100.0" x2="351.8" y2="140.0" stroke="rgb(0,0,0)"  stroke-width="1.0"/>
<line x1="359.0" y1="106.0" x2="359.0" y2="134.0" stroke="rgb(0,0,0)"  stroke-width="1.0"/>
<line x1="455.7" y1="80.0" x2="421.1" y2="100.0" stroke="rgb(0,0,0)"  stroke-width="1.0"/>
<line x1="454.1" y1="89.2" x2="429.8" y2="103.2" stroke="rgb(0,0,0)"  stroke-width="1.0"/>
<line x1="421.1" y1="140.0" x2="455.7" y2="160.0" stroke="rgb(0,0,0)"  stroke-width="1.0"/>
<line x1="429.8" y1="136.8" x2="454.1" y2="150.8" stroke="rgb(0,0,0)"  stroke-width="1.0"/>
<line x1="455.7" y1="160.0" x2="490.3" y2="140.0" stroke="rgb(0,0,0)"  stroke-width="1.0"/>
<line x1="490.3" y1="140.0" x2="490.3" y2="100.0" stroke="rgb(0,0,0)"  stroke-width="1.0"/>
<line x1="483.1" y1="134.0" x2="483.1" y2="106.0" stroke="rgb(0,0,0)"  stroke-width="1.0"/>
<line x1="490.3" y1="100.0" x2="455.7" y2="80.0" stroke="rgb(0,0,0)"  stroke-width="1.0"/>
<line x1="282.5" y1="220.0" x2="317.1" y2="200.0" stroke="rgb(0,0,0)"  stroke-width="1.0"/>
<line x1="317.1" y1="200.0" x2="317.1" y2="160.0" stroke="rgb(0,0,0)"  stroke-width="1.0"/>
<line x1="309.9" y1="194.0" x2="309.9" y2="166.0" stroke="rgb(0,0,0)"  stroke-width="1.0"/>
<line x1="317.1" y1="160.0" x2="282.5" y2="140.0" stroke="rgb(0,0,0)"  stroke-width="1.0"/>
<line x1="282.5" y1="140.0" x2="247.8" y2="160.0" stroke="rgb(0,0,0)"  stroke-width="1.0"/>
<line x1="280.9" y1="149.2" x2="256.6" y2="163.2" stroke="rgb(0,0,0)"  stroke-width="1.0"/>
<line x1="247.8" y1="160.0" x2="247.8" y2="200.0" stroke="rgb(0,0,0)"  stroke-width="1.0"/>
<line x1="247.8" y1="200.0" x2="282.5" y2="220.0" stroke="rgb(0,0,0)"  stroke-width="1.0"/>
<line x1="256.6" y1="196.8" x2="280.9" y2="210.8" stroke="rgb(0,0,0)"  stroke-width="1.0"/>
<line x1="247.8" y1="280.0" x2="282.5" y2="260.0" stroke="rgb(0,0,0)"  stroke-width="1.0"/>
<line x1="282.5" y1="260.0" x2="317.1" y2="280.0" stroke="rgb(0,0,0)"  stroke-width="1.0"/>
<line x1="284.1" y1="269.2" x2="308.3" y2="283.2" stroke="rgb(0,0,0)"  stroke-width="1.0"/>
<line x1="317.1" y1="280.0" x2="317.1" y2="320.0" stroke="rgb(0,0,0)"  stroke-width="1.0"/>
<line x1="317.1" y1="320.0" x2="282.5" y2="340.0" stroke="rgb(0,0,0)"  stroke-width="1.0"/>
<line x1="308.3" y1="316.8" x2="284.1" y2="330.8" stroke="rgb(0,0,0)"  stroke-width="1.0"/>
<line x1="282.5" y1="340.0" x2="247.8" y2="320.0" stroke="rgb(0,0,0)"  stroke-width="1.0"/>
<line x1="247.8" y1="320.0" x2="247.8" y2="280.0" stroke="rgb(0,0,0)"  stroke-width="1.0"/>
<line x1="255.0" y1="314.0" x2="255.0" y2="286.0" stroke="rgb(0,0,0)"  stroke-width="1.0"/>
<line x1="178.6" y1="280.0" x2="201.9" y2="266.5" stroke="rgb(0,0,0)"  stroke-width="1.0"/>
<line x1="224.5" y1="266.5" x2="247.8" y2="280.0" stroke="rgb(0,0,0)"  stroke-width="1.0"/>
<line x1="247.8" y1="320.0" x2="213.2" y2="340.0" stroke="rgb(0,0,0)"  stroke-width="1.0"/>
<line x1="213.2" y1="340.0" x2="178.6" y2="320.0" stroke="rgb(0,0,0)"  stroke-width="1.0"/>
<line x1="178.6" y1="320.0" x2="178.6" y2="280.0" stroke="rgb(0,0,0)"  stroke-width="1.0"/>
<line x1="185.8" y1="314.0" x2="185.8" y2="286.0" stroke="rgb(0,0,0)"  stroke-width="1.0"/>
<line x1="143.9" y1="260.0" x2="109.3" y2="280.0" stroke="rgb(0,0,0)"  stroke-width="1.0"/>
<line x1="109.3" y1="280.0" x2="74.6" y2="260.0" stroke="rgb(0,0,0)"  stroke-width="1.0"/>
<line x1="107.7" y1="270.8" x2="83.4" y2="256.8" stroke="rgb(0,0,0)"  stroke-width="1.0"/>
<line x1="74.6" y1="260.0" x2="74.6" y2="220.0" stroke="rgb(0,0,0)"  stroke-width="1.0"/>
<line x1="74.6" y1="220.0" x2="109.3" y2="200.0" stroke="rgb(0,0,0)"  stroke-width="1.0"/>
<line x1="83.4" y1="223.2" x2="107.7" y2="209.2" stroke="rgb(0,0,0)"  stroke-width="1.0"/>
<line x1="109.3" y1="200.0" x2="143.9" y2="220.0" stroke="rgb(0,0,0)"  stroke-width="1.0"/>
<line x1="143.9" y1="220.0" x2="143.9" y2="260.0" stroke="rgb(0,0,0)"  stroke-width="1.0"/>
<line x1="136.7" y1="226.0" x2="136.7" y2="254.0" stroke="rgb(0,0,0)"  stroke-width="1.0"/>
<text x="380.410162" y="168.000000" fill="rgb(255,12,12)"  stroke="rgb(255,12,12)" stroke-width="1" font-size="16" >O</text>
<text x="380.410162" y="48.000000" fill="rgb(255,12,12)"  stroke="rgb(255,12,12)" stroke-width="1" font-size="16" >O</text>
<text x="518.974226" y="168.000000" fill="rgb(255,12,12)"  stroke="rgb(255,12,12)" stroke-width="1" font-size="16" >O</text>
<text x="449.692194" y="48.000000" fill="rgb(255,12,12)"  stroke="rgb(255,12,12)" stroke-width="1" font-size="16" >OH</text>
<text x="207.205081" y="228.000000" fill="rgb(255,12,12)"  stroke="rgb(255,12,12)" stroke-width="1" font-size="16" >O</text>
<text x="207.205081" y="268.000000" fill="rgb(255,12,12)"  stroke="rgb(255,12,12)" stroke-width="1" font-size="16" >O</text>
<text x="34.000000" y="208.000000" fill="rgb(255,12,12)"  stroke="rgb(255,12,12)" stroke-width="1" font-size="16" >O</text>
<text x="207.205081" y="388.000000" fill="rgb(255,12,12)"  stroke="rgb(255,12,12)" stroke-width="1" font-size="16" >O</text>
<text x="276.487113" y="388.000000" fill="rgb(255,12,12)"  stroke="rgb(255,12,12)" stroke-width="1" font-size="16" >OH</text>
<text x="345.769145" y="268.000000" fill="rgb(255,12,12)"  stroke="rgb(255,12,12)" stroke-width="1" font-size="16" >OH</text>
<title>MFCD00017448 - OBDepict</title>
</svg>
