<?xml version="1.0"?>
<svg xmlns="http://www.w3.org/2000/svg"
xmlns:xlink="http://www.w3.org/1999/xlink" xmlns:cml="http://www.xml-cml.org/schema" width="495.692" height="420" x="0" y="0" font-family="sans-serif" stroke="rgb(0,0,0)" stroke-width="1"  stroke-linecap="round">
<rect x="0%" y="0%" width="100%" height="100%" stroke-width="0" fill="rgb(255,255,255)"  />
<line x1="421.1" y1="80.0" x2="421.1" y2="53.0" stroke="rgb(0,0,0)"  stroke-width="1.0"/>
<line x1="421.1" y1="200.0" x2="455.7" y2="220.0" stroke="rgb(0,0,0)"  stroke-width="1.0"/>
<line x1="386.4" y1="220.0" x2="386.4" y2="260.0" stroke="rgb(0,0,0)"  stroke-width="1.0"/>
<polygon points="351.769145 200.000000 319.128129 223.464102 315.128129 216.535898 " stroke-width="1.000000" fill="rgb(0,0,0)"  stroke="rgb(0,0,0)" />
<line x1="247.8" y1="260.0" x2="224.5" y2="273.5" stroke="rgb(0,0,0)"  stroke-width="1.0"/>
<line x1="201.9" y1="273.5" x2="178.6" y2="260.0" stroke="rgb(0,0,0)"  stroke-width="1.0"/>
<line x1="178.6" y1="260.0" x2="143.9" y2="280.0" stroke="rgb(0,0,0)"  stroke-width="1.0"/>
<line x1="143.9" y1="280.0" x2="120.5" y2="266.5" stroke="rgb(0,0,0)"  stroke-width="1.0"/>
<line x1="386.4" y1="340.0" x2="386.4" y2="367.0" stroke="rgb(0,0,0)"  stroke-width="1.0"/>
<line x1="386.4" y1="140.0" x2="386.4" y2="100.0" stroke="rgb(0,0,0)"  stroke-width="1.0"/>
<line x1="386.4" y1="100.0" x2="421.1" y2="80.0" stroke="rgb(0,0,0)"  stroke-width="1.0"/>
<line x1="395.2" y1="103.2" x2="419.5" y2="89.2" stroke="rgb(0,0,0)"  stroke-width="1.0"/>
<line x1="421.1" y1="80.0" x2="455.7" y2="100.0" stroke="rgb(0,0,0)"  stroke-width="1.0"/>
<line x1="455.7" y1="100.0" x2="455.7" y2="140.0" stroke="rgb(0,0,0)"  stroke-width="1.0"/>
<line x1="448.5" y1="106.0" x2="448.5" y2="134.0" stroke="rgb(0,0,0)"  stroke-width="1.0"/>
<line x1="455.7" y1="140.0" x2="421.1" y2="160.0" stroke="rgb(0,0,0)"  stroke-width="1.0"/>
<line x1="421.1" y1="160.0" x2="386.4" y2="140.0" stroke="rgb(0,0,0)"  stroke-width="1.0"/>
<line x1="419.5" y1="150.8" x2="395.2" y2="136.8" stroke="rgb(0,0,0)"  stroke-width="1.0"/>
<line x1="351.8" y1="200.0" x2="351.8" y2="173.0" stroke="rgb(0,0,0)"  stroke-width="1.0"/>
<line x1="363.0" y1="153.5" x2="386.4" y2="140.0" stroke="rgb(0,0,0)"  stroke-width="1.0"/>
<line x1="421.1" y1="160.0" x2="421.1" y2="200.0" stroke="rgb(0,0,0)"  stroke-width="1.0"/>
<line x1="421.1" y1="200.0" x2="386.4" y2="220.0" stroke="rgb(0,0,0)"  stroke-width="1.0"/>
<line x1="412.3" y1="196.8" x2="388.0" y2="210.8" stroke="rgb(0,0,0)"  stroke-width="1.0"/>
<line x1="386.4" y1="220.0" x2="351.8" y2="200.0" stroke="rgb(0,0,0)"  stroke-width="1.0"/>
<line x1="317.1" y1="220.0" x2="317.1" y2="260.0" stroke="rgb(0,0,0)"  stroke-width="1.0"/>
<line x1="317.1" y1="260.0" x2="282.5" y2="280.0" stroke="rgb(0,0,0)"  stroke-width="1.0"/>
<line x1="308.3" y1="256.8" x2="284.1" y2="270.8" stroke="rgb(0,0,0)"  stroke-width="1.0"/>
<line x1="282.5" y1="280.0" x2="247.8" y2="260.0" stroke="rgb(0,0,0)"  stroke-width="1.0"/>
<line x1="247.8" y1="260.0" x2="247.8" y2="220.0" stroke="rgb(0,0,0)"  stroke-width="1.0"/>
<line x1="255.0" y1="254.0" x2="255.0" y2="226.0" stroke="rgb(0,0,0)"  stroke-width="1.0"/>
<line x1="247.8" y1="220.0" x2="282.5" y2="200.0" stroke="rgb(0,0,0)"  stroke-width="1.0"/>
<line x1="282.5" y1="200.0" x2="317.1" y2="220.0" stroke="rgb(0,0,0)"  stroke-width="1.0"/>
<line x1="284.1" y1="209.2" x2="308.3" y2="223.2" stroke="rgb(0,0,0)"  stroke-width="1.0"/>
<line x1="98.0" y1="266.5" x2="74.6" y2="280.0" stroke="rgb(0,0,0)"  stroke-width="1.0"/>
<line x1="74.6" y1="280.0" x2="40.0" y2="260.0" stroke="rgb(0,0,0)"  stroke-width="1.0"/>
<line x1="40.0" y1="260.0" x2="40.0" y2="220.0" stroke="rgb(0,0,0)"  stroke-width="1.0"/>
<line x1="40.0" y1="220.0" x2="74.6" y2="200.0" stroke="rgb(0,0,0)"  stroke-width="1.0"/>
<line x1="74.6" y1="200.0" x2="109.3" y2="220.0" stroke="rgb(0,0,0)"  stroke-width="1.0"/>
<line x1="109.3" y1="220.0" x2="109.3" y2="247.0" stroke="rgb(0,0,0)"  stroke-width="1.0"/>
<line x1="386.4" y1="260.0" x2="421.1" y2="280.0" stroke="rgb(0,0,0)"  stroke-width="1.0"/>
<line x1="421.1" y1="280.0" x2="421.1" y2="320.0" stroke="rgb(0,0,0)"  stroke-width="1.0"/>
<line x1="413.9" y1="286.0" x2="413.9" y2="314.0" stroke="rgb(0,0,0)"  stroke-width="1.0"/>
<line x1="421.1" y1="320.0" x2="386.4" y2="340.0" stroke="rgb(0,0,0)"  stroke-width="1.0"/>
<line x1="386.4" y1="340.0" x2="351.8" y2="320.0" stroke="rgb(0,0,0)"  stroke-width="1.0"/>
<line x1="384.8" y1="330.8" x2="360.6" y2="316.8" stroke="rgb(0,0,0)"  stroke-width="1.0"/>
<line x1="351.8" y1="320.0" x2="351.8" y2="280.0" stroke="rgb(0,0,0)"  stroke-width="1.0"/>
<line x1="351.8" y1="280.0" x2="386.4" y2="260.0" stroke="rgb(0,0,0)"  stroke-width="1.0"/>
<line x1="360.6" y1="283.2" x2="384.8" y2="269.2" stroke="rgb(0,0,0)"  stroke-width="1.0"/>
<text x="345.769145" y="168.000000" fill="rgb(255,12,12)"  stroke="rgb(255,12,12)" stroke-width="1" font-size="16" >O</text>
<text x="207.205081" y="288.000000" fill="rgb(255,12,12)"  stroke="rgb(255,12,12)" stroke-width="1" font-size="16" >O</text>
<text x="103.282032" y="268.000000" fill="rgb(12,12,255)"  stroke="rgb(12,12,255)" stroke-width="1" font-size="16" >N</text>
<text x="380.410162" y="388.000000" fill="rgb(255,12,12)"  stroke="rgb(255,12,12)" stroke-width="1" font-size="16" >OH</text>
<text x="415.051178" y="48.000000" fill="rgb(255,12,12)"  stroke="rgb(255,12,12)" stroke-width="1" font-size="16" >OH</text>
<title>SERM02 - OBDepict</title>
</svg>
