<?xml version="1.0"?>
<svg xmlns="http://www.w3.org/2000/svg"
xmlns:xlink="http://www.w3.org/1999/xlink" xmlns:cml="http://www.xml-cml.org/schema" width="391.769" height="440" x="0" y="0" font-family="sans-serif" stroke="rgb(0,0,0)" stroke-width="1"  stroke-linecap="round">
<rect x="0%" y="0%" width="100%" height="100%" stroke-width="0" fill="rgb(255,255,255)"  />
<line x1="247.8" y1="160.0" x2="247.8" y2="200.0" stroke="rgb(0,0,0)"  stroke-width="1.0"/>
<line x1="247.8" y1="80.0" x2="247.8" y2="53.0" stroke="rgb(0,0,0)"  stroke-width="1.0"/>
<line x1="247.8" y1="200.0" x2="213.2" y2="220.0" stroke="rgb(0,0,0)"  stroke-width="1.0"/>
<line x1="249.3" y1="197.4" x2="284.0" y2="217.4" stroke="rgb(0,0,0)"  stroke-width="1.0"/>
<line x1="246.3" y1="202.6" x2="281.0" y2="222.6" stroke="rgb(0,0,0)"  stroke-width="1.0"/>
<line x1="143.9" y1="260.0" x2="120.5" y2="273.5" stroke="rgb(0,0,0)"  stroke-width="1.0"/>
<line x1="109.3" y1="293.0" x2="109.3" y2="320.0" stroke="rgb(0,0,0)"  stroke-width="1.0"/>
<line x1="109.3" y1="320.0" x2="74.6" y2="340.0" stroke="rgb(0,0,0)"  stroke-width="1.0"/>
<line x1="74.6" y1="340.0" x2="74.6" y2="367.0" stroke="rgb(0,0,0)"  stroke-width="1.0"/>
<line x1="63.4" y1="386.5" x2="40.0" y2="400.0" stroke="rgb(0,0,0)"  stroke-width="1.0"/>
<line x1="85.9" y1="386.5" x2="109.3" y2="400.0" stroke="rgb(0,0,0)"  stroke-width="1.0"/>
<line x1="282.5" y1="220.0" x2="317.1" y2="200.0" stroke="rgb(0,0,0)"  stroke-width="1.0"/>
<line x1="282.5" y1="220.0" x2="282.5" y2="260.0" stroke="rgb(0,0,0)"  stroke-width="1.0"/>
<line x1="317.1" y1="200.0" x2="351.8" y2="220.0" stroke="rgb(0,0,0)"  stroke-width="1.0"/>
<line x1="282.5" y1="340.0" x2="282.5" y2="367.0" stroke="rgb(0,0,0)"  stroke-width="1.0"/>
<line x1="282.5" y1="140.0" x2="247.8" y2="160.0" stroke="rgb(0,0,0)"  stroke-width="1.0"/>
<line x1="273.7" y1="136.8" x2="249.4" y2="150.8" stroke="rgb(0,0,0)"  stroke-width="1.0"/>
<line x1="247.8" y1="160.0" x2="213.2" y2="140.0" stroke="rgb(0,0,0)"  stroke-width="1.0"/>
<line x1="213.2" y1="140.0" x2="213.2" y2="100.0" stroke="rgb(0,0,0)"  stroke-width="1.0"/>
<line x1="220.4" y1="134.0" x2="220.4" y2="106.0" stroke="rgb(0,0,0)"  stroke-width="1.0"/>
<line x1="213.2" y1="100.0" x2="247.8" y2="80.0" stroke="rgb(0,0,0)"  stroke-width="1.0"/>
<line x1="247.8" y1="80.0" x2="282.5" y2="100.0" stroke="rgb(0,0,0)"  stroke-width="1.0"/>
<line x1="249.4" y1="89.2" x2="273.7" y2="103.2" stroke="rgb(0,0,0)"  stroke-width="1.0"/>
<line x1="282.5" y1="100.0" x2="282.5" y2="140.0" stroke="rgb(0,0,0)"  stroke-width="1.0"/>
<line x1="213.2" y1="220.0" x2="213.2" y2="260.0" stroke="rgb(0,0,0)"  stroke-width="1.0"/>
<line x1="213.2" y1="260.0" x2="178.6" y2="280.0" stroke="rgb(0,0,0)"  stroke-width="1.0"/>
<line x1="204.4" y1="256.8" x2="180.2" y2="270.8" stroke="rgb(0,0,0)"  stroke-width="1.0"/>
<line x1="178.6" y1="280.0" x2="143.9" y2="260.0" stroke="rgb(0,0,0)"  stroke-width="1.0"/>
<line x1="143.9" y1="260.0" x2="143.9" y2="220.0" stroke="rgb(0,0,0)"  stroke-width="1.0"/>
<line x1="151.1" y1="254.0" x2="151.1" y2="226.0" stroke="rgb(0,0,0)"  stroke-width="1.0"/>
<line x1="143.9" y1="220.0" x2="178.6" y2="200.0" stroke="rgb(0,0,0)"  stroke-width="1.0"/>
<line x1="178.6" y1="200.0" x2="213.2" y2="220.0" stroke="rgb(0,0,0)"  stroke-width="1.0"/>
<line x1="180.2" y1="209.2" x2="204.4" y2="223.2" stroke="rgb(0,0,0)"  stroke-width="1.0"/>
<line x1="282.5" y1="260.0" x2="247.8" y2="280.0" stroke="rgb(0,0,0)"  stroke-width="1.0"/>
<line x1="247.8" y1="280.0" x2="247.8" y2="320.0" stroke="rgb(0,0,0)"  stroke-width="1.0"/>
<line x1="255.0" y1="286.0" x2="255.0" y2="314.0" stroke="rgb(0,0,0)"  stroke-width="1.0"/>
<line x1="247.8" y1="320.0" x2="282.5" y2="340.0" stroke="rgb(0,0,0)"  stroke-width="1.0"/>
<line x1="282.5" y1="340.0" x2="317.1" y2="320.0" stroke="rgb(0,0,0)"  stroke-width="1.0"/>
<line x1="284.1" y1="330.8" x2="308.3" y2="316.8" stroke="rgb(0,0,0)"  stroke-width="1.0"/>
<line x1="317.1" y1="320.0" x2="317.1" y2="280.0" stroke="rgb(0,0,0)"  stroke-width="1.0"/>
<line x1="317.1" y1="280.0" x2="282.5" y2="260.0" stroke="rgb(0,0,0)"  stroke-width="1.0"/>
<line x1="308.3" y1="283.2" x2="284.1" y2="269.2" stroke="rgb(0,0,0)"  stroke-width="1.0"/>
<text x="241.846097" y="48.000000" fill="rgb(255,12,12)"  stroke="rgb(255,12,12)" stroke-width="1" font-size="16" >OH</text>
<text x="103.282032" y="288.000000" fill="rgb(255,12,12)"  stroke="rgb(255,12,12)" stroke-width="1" font-size="16" >O</text>
<text x="68.641016" y="388.000000" fill="rgb(12,12,255)"  stroke="rgb(12,12,255)" stroke-width="1" font-size="16" >N</text>
<text x="276.487113" y="388.000000" fill="rgb(255,12,12)"  stroke="rgb(255,12,12)" stroke-width="1" font-size="16" >OH</text>
<title>SERM01 - OBDepict</title>
</svg>
