<?xml version="1.0"?>
<svg xmlns="http://www.w3.org/2000/svg"
xmlns:xlink="http://www.w3.org/1999/xlink" xmlns:cml="http://www.xml-cml.org/schema" width="499.619" height="419.041" x="0" y="0" font-family="sans-serif" stroke="rgb(0,0,0)" stroke-width="1"  stroke-linecap="round">
<rect x="0%" y="0%" width="100%" height="100%" stroke-width="0" fill="rgb(255,255,255)"  />
<line x1="351.8" y1="225.1" x2="328.4" y2="211.6" stroke="rgb(0,0,0)"  stroke-width="1.0"/>
<line x1="388.3" y1="208.9" x2="396.6" y2="169.7" stroke="rgb(0,0,0)"  stroke-width="1.0"/>
<line x1="380.7" y1="341.0" x2="389.0" y2="366.7" stroke="rgb(0,0,0)"  stroke-width="1.0"/>
<line x1="413.3" y1="91.5" x2="418.9" y2="65.1" stroke="rgb(0,0,0)"  stroke-width="1.0"/>
<line x1="433.9" y1="48.3" x2="459.6" y2="40.0" stroke="rgb(0,0,0)"  stroke-width="1.0"/>
<line x1="305.9" y1="211.6" x2="282.5" y2="225.1" stroke="rgb(0,0,0)"  stroke-width="1.0"/>
<line x1="213.2" y1="265.1" x2="189.8" y2="278.6" stroke="rgb(0,0,0)"  stroke-width="1.0"/>
<line x1="167.3" y1="278.6" x2="143.9" y2="265.1" stroke="rgb(0,0,0)"  stroke-width="1.0"/>
<line x1="143.9" y1="265.1" x2="143.9" y2="225.1" stroke="rgb(0,0,0)"  stroke-width="1.0"/>
<line x1="143.9" y1="225.1" x2="120.5" y2="211.6" stroke="rgb(0,0,0)"  stroke-width="1.0"/>
<line x1="351.8" y1="225.1" x2="388.3" y2="208.9" stroke="rgb(0,0,0)"  stroke-width="1.0"/>
<line x1="360.2" y1="229.3" x2="385.8" y2="217.9" stroke="rgb(0,0,0)"  stroke-width="1.0"/>
<line x1="388.3" y1="208.9" x2="406.4" y2="228.9" stroke="rgb(0,0,0)"  stroke-width="1.0"/>
<line x1="408.6" y1="249.8" x2="395.1" y2="273.2" stroke="rgb(0,0,0)"  stroke-width="1.0"/>
<line x1="395.1" y1="273.2" x2="356.0" y2="264.9" stroke="rgb(0,0,0)"  stroke-width="1.0"/>
<line x1="356.0" y1="264.9" x2="351.8" y2="225.1" stroke="rgb(0,0,0)"  stroke-width="1.0"/>
<line x1="380.7" y1="341.0" x2="341.5" y2="332.7" stroke="rgb(0,0,0)"  stroke-width="1.0"/>
<line x1="376.3" y1="332.7" x2="348.9" y2="326.9" stroke="rgb(0,0,0)"  stroke-width="1.0"/>
<line x1="341.5" y1="332.7" x2="329.2" y2="294.6" stroke="rgb(0,0,0)"  stroke-width="1.0"/>
<line x1="329.2" y1="294.6" x2="356.0" y2="264.9" stroke="rgb(0,0,0)"  stroke-width="1.0"/>
<line x1="338.6" y1="295.0" x2="357.3" y2="274.2" stroke="rgb(0,0,0)"  stroke-width="1.0"/>
<line x1="395.1" y1="273.2" x2="407.4" y2="311.3" stroke="rgb(0,0,0)"  stroke-width="1.0"/>
<line x1="390.1" y1="281.2" x2="398.7" y2="307.8" stroke="rgb(0,0,0)"  stroke-width="1.0"/>
<line x1="407.4" y1="311.3" x2="380.7" y2="341.0" stroke="rgb(0,0,0)"  stroke-width="1.0"/>
<line x1="396.6" y1="169.7" x2="366.9" y2="143.0" stroke="rgb(0,0,0)"  stroke-width="1.0"/>
<line x1="366.9" y1="143.0" x2="375.2" y2="103.8" stroke="rgb(0,0,0)"  stroke-width="1.0"/>
<line x1="375.2" y1="138.6" x2="381.0" y2="111.2" stroke="rgb(0,0,0)"  stroke-width="1.0"/>
<line x1="375.2" y1="103.8" x2="413.3" y2="91.5" stroke="rgb(0,0,0)"  stroke-width="1.0"/>
<line x1="413.3" y1="91.5" x2="443.0" y2="118.3" stroke="rgb(0,0,0)"  stroke-width="1.0"/>
<line x1="412.9" y1="100.9" x2="433.7" y2="119.6" stroke="rgb(0,0,0)"  stroke-width="1.0"/>
<line x1="443.0" y1="118.3" x2="434.7" y2="157.4" stroke="rgb(0,0,0)"  stroke-width="1.0"/>
<line x1="434.7" y1="157.4" x2="396.6" y2="169.7" stroke="rgb(0,0,0)"  stroke-width="1.0"/>
<line x1="426.7" y1="152.4" x2="400.1" y2="161.0" stroke="rgb(0,0,0)"  stroke-width="1.0"/>
<line x1="282.5" y1="225.1" x2="282.5" y2="265.1" stroke="rgb(0,0,0)"  stroke-width="1.0"/>
<line x1="282.5" y1="265.1" x2="247.8" y2="285.1" stroke="rgb(0,0,0)"  stroke-width="1.0"/>
<line x1="273.7" y1="261.9" x2="249.4" y2="275.9" stroke="rgb(0,0,0)"  stroke-width="1.0"/>
<line x1="247.8" y1="285.1" x2="213.2" y2="265.1" stroke="rgb(0,0,0)"  stroke-width="1.0"/>
<line x1="213.2" y1="265.1" x2="213.2" y2="225.1" stroke="rgb(0,0,0)"  stroke-width="1.0"/>
<line x1="220.4" y1="259.1" x2="220.4" y2="231.1" stroke="rgb(0,0,0)"  stroke-width="1.0"/>
<line x1="213.2" y1="225.1" x2="247.8" y2="205.1" stroke="rgb(0,0,0)"  stroke-width="1.0"/>
<line x1="247.8" y1="205.1" x2="282.5" y2="225.1" stroke="rgb(0,0,0)"  stroke-width="1.0"/>
<line x1="249.4" y1="214.4" x2="273.7" y2="228.4" stroke="rgb(0,0,0)"  stroke-width="1.0"/>
<line x1="98.0" y1="211.6" x2="74.6" y2="225.1" stroke="rgb(0,0,0)"  stroke-width="1.0"/>
<line x1="74.6" y1="225.1" x2="40.0" y2="205.1" stroke="rgb(0,0,0)"  stroke-width="1.0"/>
<line x1="40.0" y1="205.1" x2="40.0" y2="165.1" stroke="rgb(0,0,0)"  stroke-width="1.0"/>
<line x1="40.0" y1="165.1" x2="74.6" y2="145.1" stroke="rgb(0,0,0)"  stroke-width="1.0"/>
<line x1="74.6" y1="145.1" x2="109.3" y2="165.1" stroke="rgb(0,0,0)"  stroke-width="1.0"/>
<line x1="109.3" y1="165.1" x2="109.3" y2="192.1" stroke="rgb(0,0,0)"  stroke-width="1.0"/>
<text x="409.076188" y="246.590089" fill="rgb(178,178,0)"  stroke="rgb(178,178,0)" stroke-width="1" font-size="16" >S</text>
<text x="387.032323" y="387.041419" fill="rgb(255,12,12)"  stroke="rgb(255,12,12)" stroke-width="1" font-size="16" >OH</text>
<text x="415.576834" y="60.360680" fill="rgb(255,12,12)"  stroke="rgb(255,12,12)" stroke-width="1" font-size="16" >O</text>
<text x="311.128129" y="213.133762" fill="rgb(255,12,12)"  stroke="rgb(255,12,12)" stroke-width="1" font-size="16" >O</text>
<text x="172.564065" y="293.133762" fill="rgb(255,12,12)"  stroke="rgb(255,12,12)" stroke-width="1" font-size="16" >O</text>
<text x="103.282032" y="213.133762" fill="rgb(12,12,255)"  stroke="rgb(12,12,255)" stroke-width="1" font-size="16" >N</text>
<title>SERM10 - OBDepict</title>
</svg>
