<?xml version="1.0"?>
<svg xmlns="http://www.w3.org/2000/svg"
xmlns:xlink="http://www.w3.org/1999/xlink" xmlns:cml="http://www.xml-cml.org/schema" width="524.358" height="340" x="0" y="0" font-family="sans-serif" stroke="rgb(0,0,0)" stroke-width="1"  stroke-linecap="round">
<rect x="0%" y="0%" width="100%" height="100%" stroke-width="0" fill="rgb(255,255,255)"  />
<line x1="415.1" y1="220.0" x2="438.5" y2="233.5" stroke="rgb(0,0,0)"  stroke-width="1.0"/>
<line x1="461.0" y1="233.5" x2="484.4" y2="220.0" stroke="rgb(0,0,0)"  stroke-width="1.0"/>
<line x1="311.2" y1="160.0" x2="276.5" y2="180.0" stroke="rgb(0,0,0)"  stroke-width="1.0"/>
<line x1="311.2" y1="120.0" x2="276.5" y2="100.0" stroke="rgb(0,0,0)"  stroke-width="1.0"/>
<line x1="207.2" y1="220.0" x2="183.8" y2="233.5" stroke="rgb(0,0,0)"  stroke-width="1.0"/>
<line x1="172.6" y1="253.0" x2="172.6" y2="280.0" stroke="rgb(0,0,0)"  stroke-width="1.0"/>
<line x1="172.6" y1="280.0" x2="137.9" y2="300.0" stroke="rgb(0,0,0)"  stroke-width="1.0"/>
<line x1="137.9" y1="300.0" x2="114.6" y2="286.5" stroke="rgb(0,0,0)"  stroke-width="1.0"/>
<line x1="101.9" y1="267.1" x2="99.1" y2="240.2" stroke="rgb(0,0,0)"  stroke-width="1.0"/>
<line x1="99.1" y1="240.2" x2="60.0" y2="231.9" stroke="rgb(0,0,0)"  stroke-width="1.0"/>
<line x1="60.0" y1="231.9" x2="40.0" y2="266.5" stroke="rgb(0,0,0)"  stroke-width="1.0"/>
<line x1="40.0" y1="266.5" x2="66.8" y2="296.3" stroke="rgb(0,0,0)"  stroke-width="1.0"/>
<line x1="66.8" y1="296.3" x2="91.4" y2="285.3" stroke="rgb(0,0,0)"  stroke-width="1.0"/>
<line x1="415.1" y1="180.0" x2="380.4" y2="160.0" stroke="rgb(0,0,0)"  stroke-width="1.0"/>
<line x1="380.4" y1="160.0" x2="345.8" y2="180.0" stroke="rgb(0,0,0)"  stroke-width="1.0"/>
<line x1="378.8" y1="169.2" x2="354.6" y2="183.2" stroke="rgb(0,0,0)"  stroke-width="1.0"/>
<line x1="345.8" y1="180.0" x2="345.8" y2="220.0" stroke="rgb(0,0,0)"  stroke-width="1.0"/>
<line x1="345.8" y1="220.0" x2="380.4" y2="240.0" stroke="rgb(0,0,0)"  stroke-width="1.0"/>
<line x1="354.6" y1="216.8" x2="378.8" y2="230.8" stroke="rgb(0,0,0)"  stroke-width="1.0"/>
<line x1="380.4" y1="240.0" x2="415.1" y2="220.0" stroke="rgb(0,0,0)"  stroke-width="1.0"/>
<line x1="415.1" y1="220.0" x2="415.1" y2="180.0" stroke="rgb(0,0,0)"  stroke-width="1.0"/>
<line x1="407.9" y1="214.0" x2="407.9" y2="186.0" stroke="rgb(0,0,0)"  stroke-width="1.0"/>
<line x1="345.8" y1="100.0" x2="311.2" y2="120.0" stroke="rgb(0,0,0)"  stroke-width="1.0"/>
<line x1="311.2" y1="120.0" x2="311.2" y2="160.0" stroke="rgb(0,0,0)"  stroke-width="1.0"/>
<line x1="318.4" y1="126.0" x2="318.4" y2="154.0" stroke="rgb(0,0,0)"  stroke-width="1.0"/>
<line x1="311.2" y1="160.0" x2="345.8" y2="180.0" stroke="rgb(0,0,0)"  stroke-width="1.0"/>
<line x1="380.4" y1="160.0" x2="380.4" y2="120.0" stroke="rgb(0,0,0)"  stroke-width="1.0"/>
<line x1="380.4" y1="120.0" x2="345.8" y2="100.0" stroke="rgb(0,0,0)"  stroke-width="1.0"/>
<line x1="276.5" y1="100.0" x2="241.9" y2="120.0" stroke="rgb(0,0,0)"  stroke-width="1.0"/>
<line x1="241.9" y1="120.0" x2="207.2" y2="100.0" stroke="rgb(0,0,0)"  stroke-width="1.0"/>
<line x1="240.3" y1="110.8" x2="216.0" y2="96.8" stroke="rgb(0,0,0)"  stroke-width="1.0"/>
<line x1="207.2" y1="100.0" x2="207.2" y2="60.0" stroke="rgb(0,0,0)"  stroke-width="1.0"/>
<line x1="207.2" y1="60.0" x2="241.9" y2="40.0" stroke="rgb(0,0,0)"  stroke-width="1.0"/>
<line x1="216.0" y1="63.2" x2="240.3" y2="49.2" stroke="rgb(0,0,0)"  stroke-width="1.0"/>
<line x1="241.9" y1="40.0" x2="276.5" y2="60.0" stroke="rgb(0,0,0)"  stroke-width="1.0"/>
<line x1="276.5" y1="60.0" x2="276.5" y2="100.0" stroke="rgb(0,0,0)"  stroke-width="1.0"/>
<line x1="269.3" y1="66.0" x2="269.3" y2="94.0" stroke="rgb(0,0,0)"  stroke-width="1.0"/>
<line x1="276.5" y1="180.0" x2="276.5" y2="220.0" stroke="rgb(0,0,0)"  stroke-width="1.0"/>
<line x1="276.5" y1="220.0" x2="241.9" y2="240.0" stroke="rgb(0,0,0)"  stroke-width="1.0"/>
<line x1="267.7" y1="216.8" x2="243.5" y2="230.8" stroke="rgb(0,0,0)"  stroke-width="1.0"/>
<line x1="241.9" y1="240.0" x2="207.2" y2="220.0" stroke="rgb(0,0,0)"  stroke-width="1.0"/>
<line x1="207.2" y1="220.0" x2="207.2" y2="180.0" stroke="rgb(0,0,0)"  stroke-width="1.0"/>
<line x1="214.4" y1="214.0" x2="214.4" y2="186.0" stroke="rgb(0,0,0)"  stroke-width="1.0"/>
<line x1="207.2" y1="180.0" x2="241.9" y2="160.0" stroke="rgb(0,0,0)"  stroke-width="1.0"/>
<line x1="241.9" y1="160.0" x2="276.5" y2="180.0" stroke="rgb(0,0,0)"  stroke-width="1.0"/>
<line x1="243.5" y1="169.2" x2="267.7" y2="183.2" stroke="rgb(0,0,0)"  stroke-width="1.0"/>
<text x="443.717204" y="248.000000" fill="rgb(255,12,12)"  stroke="rgb(255,12,12)" stroke-width="1" font-size="16" >O</text>
<text x="166.589075" y="248.000000" fill="rgb(255,12,12)"  stroke="rgb(255,12,12)" stroke-width="1" font-size="16" >O</text>
<text x="97.307043" y="288.000000" fill="rgb(12,12,255)"  stroke="rgb(12,12,255)" stroke-width="1" font-size="16" >N</text>
<title>SERM15 - OBDepict</title>
</svg>
