<?xml version="1.0"?>
<svg xmlns="http://www.w3.org/2000/svg"
xmlns:xlink="http://www.w3.org/1999/xlink" xmlns:cml="http://www.xml-cml.org/schema" width="426.41" height="354.641" x="0" y="0" font-family="sans-serif" stroke="rgb(0,0,0)" stroke-width="1"  stroke-linecap="round">
<rect x="0%" y="0%" width="100%" height="100%" stroke-width="0" fill="rgb(255,255,255)"  />
<line x1="282.5" y1="160.0" x2="259.1" y2="146.5" stroke="rgb(0,0,0)"  stroke-width="1.0"/>
<line x1="282.5" y1="200.0" x2="247.8" y2="220.0" stroke="rgb(0,0,0)"  stroke-width="1.0"/>
<line x1="236.6" y1="146.5" x2="213.2" y2="160.0" stroke="rgb(0,0,0)"  stroke-width="1.0"/>
<line x1="213.2" y1="160.0" x2="178.6" y2="140.0" stroke="rgb(0,0,0)"  stroke-width="1.0"/>
<line x1="109.3" y1="100.0" x2="85.9" y2="86.5" stroke="rgb(0,0,0)"  stroke-width="1.0"/>
<line x1="74.6" y1="67.0" x2="74.6" y2="53.0" stroke="rgb(0,0,0)"  stroke-width="1.0"/>
<line x1="63.4" y1="86.5" x2="51.3" y2="93.5" stroke="rgb(0,0,0)"  stroke-width="1.0"/>
<line x1="351.8" y1="280.0" x2="331.8" y2="314.6" stroke="rgb(0,0,0)"  stroke-width="1.0"/>
<line x1="351.8" y1="280.0" x2="371.8" y2="314.6" stroke="rgb(0,0,0)"  stroke-width="1.0"/>
<line x1="317.1" y1="220.0" x2="351.8" y2="200.0" stroke="rgb(0,0,0)"  stroke-width="1.0"/>
<line x1="351.8" y1="200.0" x2="351.8" y2="160.0" stroke="rgb(0,0,0)"  stroke-width="1.0"/>
<line x1="344.6" y1="194.0" x2="344.6" y2="166.0" stroke="rgb(0,0,0)"  stroke-width="1.0"/>
<line x1="351.8" y1="160.0" x2="317.1" y2="140.0" stroke="rgb(0,0,0)"  stroke-width="1.0"/>
<line x1="317.1" y1="140.0" x2="282.5" y2="160.0" stroke="rgb(0,0,0)"  stroke-width="1.0"/>
<line x1="315.5" y1="149.2" x2="291.3" y2="163.2" stroke="rgb(0,0,0)"  stroke-width="1.0"/>
<line x1="282.5" y1="160.0" x2="282.5" y2="200.0" stroke="rgb(0,0,0)"  stroke-width="1.0"/>
<line x1="282.5" y1="200.0" x2="317.1" y2="220.0" stroke="rgb(0,0,0)"  stroke-width="1.0"/>
<line x1="291.3" y1="196.8" x2="315.5" y2="210.8" stroke="rgb(0,0,0)"  stroke-width="1.0"/>
<line x1="351.8" y1="280.0" x2="386.4" y2="260.0" stroke="rgb(0,0,0)"  stroke-width="1.0"/>
<line x1="386.4" y1="260.0" x2="386.4" y2="220.0" stroke="rgb(0,0,0)"  stroke-width="1.0"/>
<line x1="379.2" y1="254.0" x2="379.2" y2="226.0" stroke="rgb(0,0,0)"  stroke-width="1.0"/>
<line x1="386.4" y1="220.0" x2="351.8" y2="200.0" stroke="rgb(0,0,0)"  stroke-width="1.0"/>
<line x1="317.1" y1="220.0" x2="317.1" y2="247.0" stroke="rgb(0,0,0)"  stroke-width="1.0"/>
<line x1="328.4" y1="266.5" x2="351.8" y2="280.0" stroke="rgb(0,0,0)"  stroke-width="1.0"/>
<line x1="178.6" y1="140.0" x2="143.9" y2="160.0" stroke="rgb(0,0,0)"  stroke-width="1.0"/>
<line x1="143.9" y1="160.0" x2="109.3" y2="140.0" stroke="rgb(0,0,0)"  stroke-width="1.0"/>
<line x1="142.3" y1="150.8" x2="118.1" y2="136.8" stroke="rgb(0,0,0)"  stroke-width="1.0"/>
<line x1="109.3" y1="140.0" x2="109.3" y2="100.0" stroke="rgb(0,0,0)"  stroke-width="1.0"/>
<line x1="109.3" y1="100.0" x2="143.9" y2="80.0" stroke="rgb(0,0,0)"  stroke-width="1.0"/>
<line x1="118.1" y1="103.2" x2="142.3" y2="89.2" stroke="rgb(0,0,0)"  stroke-width="1.0"/>
<line x1="143.9" y1="80.0" x2="178.6" y2="100.0" stroke="rgb(0,0,0)"  stroke-width="1.0"/>
<line x1="178.6" y1="100.0" x2="178.6" y2="140.0" stroke="rgb(0,0,0)"  stroke-width="1.0"/>
<line x1="171.4" y1="106.0" x2="171.4" y2="134.0" stroke="rgb(0,0,0)"  stroke-width="1.0"/>
<text x="241.846097" y="148.000000" fill="rgb(255,12,12)"  stroke="rgb(255,12,12)" stroke-width="1" font-size="16" >O</text>
<text x="79.441016" y="75.968000" fill="rgb(12,12,255)"  stroke="rgb(12,12,255)" stroke-width="1" font-size="16" >+</text>
<text x="68.641016" y="88.000000" fill="rgb(12,12,255)"  stroke="rgb(12,12,255)" stroke-width="1" font-size="16" >N</text>
<text x="79.441016" y="25.888000" fill="rgb(255,12,12)"  stroke="rgb(255,12,12)" stroke-width="1" font-size="16" >_</text>
<text x="68.641016" y="48.000000" fill="rgb(255,12,12)"  stroke="rgb(255,12,12)" stroke-width="1" font-size="16" >O</text>
<text x="22.000000" y="108.000000" fill="rgb(255,12,12)"  stroke="rgb(255,12,12)" stroke-width="1" font-size="16" >HO</text>
<text x="311.128129" y="268.000000" fill="rgb(255,12,12)"  stroke="rgb(255,12,12)" stroke-width="1" font-size="16" >O</text>
<title>MFCD00219180 - OBDepict</title>
</svg>
