<?xml version="1.0"?>
<svg xmlns="http://www.w3.org/2000/svg"
xmlns:xlink="http://www.w3.org/1999/xlink" xmlns:cml="http://www.xml-cml.org/schema" width="668.897" height="294.641" x="0" y="0" font-family="sans-serif" stroke="rgb(0,0,0)" stroke-width="1"  stroke-linecap="round">
<rect x="0%" y="0%" width="100%" height="100%" stroke-width="0" fill="rgb(255,255,255)"  />
<line x1="178.6" y1="160.0" x2="213.2" y2="140.0" stroke="rgb(0,0,0)"  stroke-width="1.0"/>
<line x1="178.6" y1="200.0" x2="201.9" y2="213.5" stroke="rgb(0,0,0)"  stroke-width="1.0"/>
<line x1="109.3" y1="200.0" x2="74.6" y2="220.0" stroke="rgb(0,0,0)"  stroke-width="1.0"/>
<line x1="74.6" y1="220.0" x2="61.1" y2="243.4" stroke="rgb(0,0,0)"  stroke-width="1.0"/>
<line x1="74.6" y1="220.0" x2="88.1" y2="243.4" stroke="rgb(0,0,0)"  stroke-width="1.0"/>
<line x1="74.6" y1="220.0" x2="51.3" y2="206.5" stroke="rgb(0,0,0)"  stroke-width="1.0"/>
<line x1="213.2" y1="140.0" x2="236.6" y2="153.5" stroke="rgb(0,0,0)"  stroke-width="1.0"/>
<line x1="259.1" y1="153.5" x2="282.5" y2="140.0" stroke="rgb(0,0,0)"  stroke-width="1.0"/>
<line x1="351.8" y1="100.0" x2="386.4" y2="80.0" stroke="rgb(0,0,0)"  stroke-width="1.0"/>
<line x1="387.9" y1="77.4" x2="411.3" y2="90.9" stroke="rgb(0,0,0)"  stroke-width="1.0"/>
<line x1="384.9" y1="82.6" x2="408.3" y2="96.1" stroke="rgb(0,0,0)"  stroke-width="1.0"/>
<line x1="386.4" y1="80.0" x2="386.4" y2="40.0" stroke="rgb(0,0,0)"  stroke-width="1.0"/>
<line x1="432.3" y1="93.5" x2="444.4" y2="86.5" stroke="rgb(0,0,0)"  stroke-width="1.0"/>
<line x1="467.0" y1="86.5" x2="490.3" y2="100.0" stroke="rgb(0,0,0)"  stroke-width="1.0"/>
<line x1="559.6" y1="100.0" x2="594.3" y2="80.0" stroke="rgb(0,0,0)"  stroke-width="1.0"/>
<line x1="594.3" y1="80.0" x2="607.8" y2="56.6" stroke="rgb(0,0,0)"  stroke-width="1.0"/>
<line x1="594.3" y1="80.0" x2="580.8" y2="56.6" stroke="rgb(0,0,0)"  stroke-width="1.0"/>
<line x1="594.3" y1="80.0" x2="617.6" y2="93.5" stroke="rgb(0,0,0)"  stroke-width="1.0"/>
<line x1="178.6" y1="160.0" x2="178.6" y2="200.0" stroke="rgb(0,0,0)"  stroke-width="1.0"/>
<line x1="178.6" y1="200.0" x2="143.9" y2="220.0" stroke="rgb(0,0,0)"  stroke-width="1.0"/>
<line x1="169.8" y1="196.8" x2="145.5" y2="210.8" stroke="rgb(0,0,0)"  stroke-width="1.0"/>
<line x1="143.9" y1="220.0" x2="109.3" y2="200.0" stroke="rgb(0,0,0)"  stroke-width="1.0"/>
<line x1="109.3" y1="200.0" x2="109.3" y2="160.0" stroke="rgb(0,0,0)"  stroke-width="1.0"/>
<line x1="116.5" y1="194.0" x2="116.5" y2="166.0" stroke="rgb(0,0,0)"  stroke-width="1.0"/>
<line x1="109.3" y1="160.0" x2="132.7" y2="146.5" stroke="rgb(0,0,0)"  stroke-width="1.0"/>
<line x1="155.4" y1="146.6" x2="178.6" y2="160.0" stroke="rgb(0,0,0)"  stroke-width="1.0"/>
<line x1="153.5" y1="153.8" x2="169.8" y2="163.2" stroke="rgb(0,0,0)"  stroke-width="1.0"/>
<line x1="282.5" y1="140.0" x2="282.5" y2="100.0" stroke="rgb(0,0,0)"  stroke-width="1.0"/>
<line x1="282.5" y1="100.0" x2="317.1" y2="80.0" stroke="rgb(0,0,0)"  stroke-width="1.0"/>
<line x1="291.3" y1="103.2" x2="315.5" y2="89.2" stroke="rgb(0,0,0)"  stroke-width="1.0"/>
<line x1="317.1" y1="80.0" x2="351.8" y2="100.0" stroke="rgb(0,0,0)"  stroke-width="1.0"/>
<line x1="351.8" y1="100.0" x2="351.8" y2="140.0" stroke="rgb(0,0,0)"  stroke-width="1.0"/>
<line x1="344.6" y1="106.0" x2="344.6" y2="134.0" stroke="rgb(0,0,0)"  stroke-width="1.0"/>
<line x1="351.8" y1="140.0" x2="317.1" y2="160.0" stroke="rgb(0,0,0)"  stroke-width="1.0"/>
<line x1="317.1" y1="160.0" x2="282.5" y2="140.0" stroke="rgb(0,0,0)"  stroke-width="1.0"/>
<line x1="315.5" y1="150.8" x2="291.3" y2="136.8" stroke="rgb(0,0,0)"  stroke-width="1.0"/>
<line x1="490.3" y1="100.0" x2="525.0" y2="80.0" stroke="rgb(0,0,0)"  stroke-width="1.0"/>
<line x1="499.1" y1="103.2" x2="523.4" y2="89.2" stroke="rgb(0,0,0)"  stroke-width="1.0"/>
<line x1="525.0" y1="80.0" x2="559.6" y2="100.0" stroke="rgb(0,0,0)"  stroke-width="1.0"/>
<line x1="559.6" y1="100.0" x2="559.6" y2="140.0" stroke="rgb(0,0,0)"  stroke-width="1.0"/>
<line x1="552.4" y1="106.0" x2="552.4" y2="134.0" stroke="rgb(0,0,0)"  stroke-width="1.0"/>
<line x1="559.6" y1="140.0" x2="525.0" y2="160.0" stroke="rgb(0,0,0)"  stroke-width="1.0"/>
<line x1="525.0" y1="160.0" x2="490.3" y2="140.0" stroke="rgb(0,0,0)"  stroke-width="1.0"/>
<line x1="523.4" y1="150.8" x2="499.1" y2="136.8" stroke="rgb(0,0,0)"  stroke-width="1.0"/>
<line x1="490.3" y1="140.0" x2="490.3" y2="100.0" stroke="rgb(0,0,0)"  stroke-width="1.0"/>
<text x="137.923048" y="148.000000" fill="rgb(12,12,255)"  stroke="rgb(12,12,255)" stroke-width="1" font-size="16" >N</text>
<text x="48.641016" y="262.641016" fill="rgb(127,178,255)"  stroke="rgb(127,178,255)" stroke-width="1" font-size="16" >F</text>
<text x="88.641016" y="262.641016" fill="rgb(127,178,255)"  stroke="rgb(127,178,255)" stroke-width="1" font-size="16" >F</text>
<text x="34.000000" y="208.000000" fill="rgb(127,178,255)"  stroke="rgb(127,178,255)" stroke-width="1" font-size="16" >F</text>
<text x="207.205081" y="228.000000" fill="rgb(30,239,30)"  stroke="rgb(30,239,30)" stroke-width="1" font-size="16" >Cl</text>
<text x="241.846097" y="168.000000" fill="rgb(255,12,12)"  stroke="rgb(255,12,12)" stroke-width="1" font-size="16" >O</text>
<text x="415.051178" y="108.000000" fill="rgb(12,12,255)"  stroke="rgb(12,12,255)" stroke-width="1" font-size="16" >N</text>
<text x="449.692194" y="88.000000" fill="rgb(12,12,255)"  stroke="rgb(12,12,255)" stroke-width="1" font-size="16" >N</text>
<text x="449.692194" y="72.000000" fill="rgb(12,12,255)"  stroke="rgb(12,12,255)" stroke-width="1" font-size="16" >H</text>
<text x="608.256258" y="53.358984" fill="rgb(127,178,255)"  stroke="rgb(127,178,255)" stroke-width="1" font-size="16" >F</text>
<text x="568.256258" y="53.358984" fill="rgb(127,178,255)"  stroke="rgb(127,178,255)" stroke-width="1" font-size="16" >F</text>
<text x="622.897275" y="108.000000" fill="rgb(127,178,255)"  stroke="rgb(127,178,255)" stroke-width="1" font-size="16" >F</text>
<title>MFCD00209012 - OBDepict</title>
</svg>
