<?xml version="1.0"?>
<svg xmlns="http://www.w3.org/2000/svg"
xmlns:xlink="http://www.w3.org/1999/xlink" xmlns:cml="http://www.xml-cml.org/schema" width="253.205" height="380" x="0" y="0" font-family="sans-serif" stroke="rgb(0,0,0)" stroke-width="1"  stroke-linecap="round">
<rect x="0%" y="0%" width="100%" height="100%" stroke-width="0" fill="rgb(255,255,255)"  />
<line x1="109.3" y1="260.0" x2="109.3" y2="233.0" stroke="rgb(0,0,0)"  stroke-width="1.0"/>
<line x1="143.9" y1="280.0" x2="178.6" y2="260.0" stroke="rgb(0,0,0)"  stroke-width="1.0"/>
<line x1="178.6" y1="260.0" x2="213.2" y2="280.0" stroke="rgb(0,0,0)"  stroke-width="1.0"/>
<line x1="216.2" y1="280.0" x2="216.2" y2="320.0" stroke="rgb(0,0,0)"  stroke-width="1.0"/>
<line x1="210.2" y1="280.0" x2="210.2" y2="320.0" stroke="rgb(0,0,0)"  stroke-width="1.0"/>
<line x1="98.0" y1="213.5" x2="74.6" y2="200.0" stroke="rgb(0,0,0)"  stroke-width="1.0"/>
<line x1="75.4" y1="168.0" x2="73.8" y2="168.0" stroke="rgb(0,0,0)"  stroke-width="1.0"/>
<line x1="76.1" y1="174.4" x2="73.2" y2="174.4" stroke="rgb(0,0,0)"  stroke-width="1.0"/>
<line x1="76.7" y1="180.8" x2="72.6" y2="180.8" stroke="rgb(0,0,0)"  stroke-width="1.0"/>
<line x1="77.4" y1="187.2" x2="71.9" y2="187.2" stroke="rgb(0,0,0)"  stroke-width="1.0"/>
<line x1="78.0" y1="193.6" x2="71.3" y2="193.6" stroke="rgb(0,0,0)"  stroke-width="1.0"/>
<line x1="78.6" y1="200.0" x2="70.6" y2="200.0" stroke="rgb(0,0,0)"  stroke-width="1.0"/>
<line x1="74.6" y1="160.0" x2="109.3" y2="140.0" stroke="rgb(0,0,0)"  stroke-width="1.0"/>
<line x1="74.6" y1="160.0" x2="51.3" y2="146.5" stroke="rgb(0,0,0)"  stroke-width="1.0"/>
<line x1="109.3" y1="140.0" x2="109.3" y2="113.0" stroke="rgb(0,0,0)"  stroke-width="1.0"/>
<line x1="120.5" y1="93.5" x2="143.9" y2="80.0" stroke="rgb(0,0,0)"  stroke-width="1.0"/>
<line x1="143.9" y1="80.0" x2="178.6" y2="100.0" stroke="rgb(0,0,0)"  stroke-width="1.0"/>
<line x1="143.9" y1="80.0" x2="143.9" y2="40.0" stroke="rgb(0,0,0)"  stroke-width="1.0"/>
<line x1="109.3" y1="260.0" x2="143.9" y2="280.0" stroke="rgb(0,0,0)"  stroke-width="1.0"/>
<line x1="143.9" y1="280.0" x2="143.9" y2="320.0" stroke="rgb(0,0,0)"  stroke-width="1.0"/>
<line x1="136.7" y1="286.0" x2="136.7" y2="314.0" stroke="rgb(0,0,0)"  stroke-width="1.0"/>
<line x1="143.9" y1="320.0" x2="109.3" y2="340.0" stroke="rgb(0,0,0)"  stroke-width="1.0"/>
<line x1="109.3" y1="340.0" x2="74.6" y2="320.0" stroke="rgb(0,0,0)"  stroke-width="1.0"/>
<line x1="107.7" y1="330.8" x2="83.4" y2="316.8" stroke="rgb(0,0,0)"  stroke-width="1.0"/>
<line x1="74.6" y1="320.0" x2="74.6" y2="280.0" stroke="rgb(0,0,0)"  stroke-width="1.0"/>
<line x1="74.6" y1="280.0" x2="109.3" y2="260.0" stroke="rgb(0,0,0)"  stroke-width="1.0"/>
<line x1="83.4" y1="283.2" x2="107.7" y2="269.2" stroke="rgb(0,0,0)"  stroke-width="1.0"/>
<text x="103.282032" y="228.000000" fill="rgb(255,12,12)"  stroke="rgb(255,12,12)" stroke-width="1" font-size="16" >O</text>
<text x="91.282032" y="108.000000" fill="rgb(12,12,255)"  stroke="rgb(12,12,255)" stroke-width="1" font-size="16" >HN</text>
<text x="22.000000" y="148.000000" fill="rgb(255,12,12)"  stroke="rgb(255,12,12)" stroke-width="1" font-size="16" >HO</text>
<title>MFCD00069212 - OBDepict</title>
</svg>
