<?xml version="1.0"?>
<svg xmlns="http://www.w3.org/2000/svg"
xmlns:xlink="http://www.w3.org/1999/xlink" xmlns:cml="http://www.xml-cml.org/schema" width="373.205" height="360" x="0" y="0" font-family="sans-serif" stroke="rgb(0,0,0)" stroke-width="1"  stroke-linecap="round">
<rect x="0%" y="0%" width="100%" height="100%" stroke-width="0" fill="rgb(255,255,255)"  />
<line x1="120.0" y1="80.0" x2="147.0" y2="80.0" stroke="rgb(0,0,0)"  stroke-width="1.0"/>
<line x1="160.0" y1="93.0" x2="160.0" y2="107.0" stroke="rgb(0,0,0)"  stroke-width="1.0"/>
<line x1="173.0" y1="77.0" x2="187.0" y2="77.0" stroke="rgb(0,0,0)"  stroke-width="1.0"/>
<line x1="173.0" y1="83.0" x2="187.0" y2="83.0" stroke="rgb(0,0,0)"  stroke-width="1.0"/>
<line x1="157.0" y1="67.0" x2="157.0" y2="53.0" stroke="rgb(0,0,0)"  stroke-width="1.0"/>
<line x1="163.0" y1="67.0" x2="163.0" y2="53.0" stroke="rgb(0,0,0)"  stroke-width="1.0"/>
<line x1="171.3" y1="126.5" x2="194.6" y2="140.0" stroke="rgb(0,0,0)"  stroke-width="1.0"/>
<line x1="193.8" y1="172.0" x2="195.4" y2="172.0" stroke="rgb(0,0,0)"  stroke-width="1.0"/>
<line x1="193.2" y1="165.6" x2="196.1" y2="165.6" stroke="rgb(0,0,0)"  stroke-width="1.0"/>
<line x1="192.6" y1="159.2" x2="196.7" y2="159.2" stroke="rgb(0,0,0)"  stroke-width="1.0"/>
<line x1="191.9" y1="152.8" x2="197.4" y2="152.8" stroke="rgb(0,0,0)"  stroke-width="1.0"/>
<line x1="191.3" y1="146.4" x2="198.0" y2="146.4" stroke="rgb(0,0,0)"  stroke-width="1.0"/>
<line x1="190.6" y1="140.0" x2="198.6" y2="140.0" stroke="rgb(0,0,0)"  stroke-width="1.0"/>
<line x1="194.6" y1="180.0" x2="160.0" y2="200.0" stroke="rgb(0,0,0)"  stroke-width="1.0"/>
<line x1="194.6" y1="180.0" x2="218.0" y2="193.5" stroke="rgb(0,0,0)"  stroke-width="1.0"/>
<line x1="160.0" y1="200.0" x2="160.0" y2="227.0" stroke="rgb(0,0,0)"  stroke-width="1.0"/>
<line x1="171.3" y1="246.5" x2="194.6" y2="260.0" stroke="rgb(0,0,0)"  stroke-width="1.0"/>
<line x1="263.9" y1="300.0" x2="287.3" y2="313.5" stroke="rgb(0,0,0)"  stroke-width="1.0"/>
<line x1="309.8" y1="313.5" x2="333.2" y2="300.0" stroke="rgb(0,0,0)"  stroke-width="1.0"/>
<line x1="194.6" y1="260.0" x2="229.3" y2="240.0" stroke="rgb(0,0,0)"  stroke-width="1.0"/>
<line x1="229.3" y1="240.0" x2="263.9" y2="260.0" stroke="rgb(0,0,0)"  stroke-width="1.0"/>
<line x1="230.9" y1="249.2" x2="255.1" y2="263.2" stroke="rgb(0,0,0)"  stroke-width="1.0"/>
<line x1="263.9" y1="260.0" x2="263.9" y2="300.0" stroke="rgb(0,0,0)"  stroke-width="1.0"/>
<line x1="263.9" y1="300.0" x2="229.3" y2="320.0" stroke="rgb(0,0,0)"  stroke-width="1.0"/>
<line x1="255.1" y1="296.8" x2="230.9" y2="310.8" stroke="rgb(0,0,0)"  stroke-width="1.0"/>
<line x1="229.3" y1="320.0" x2="194.6" y2="300.0" stroke="rgb(0,0,0)"  stroke-width="1.0"/>
<line x1="194.6" y1="300.0" x2="194.6" y2="260.0" stroke="rgb(0,0,0)"  stroke-width="1.0"/>
<line x1="201.8" y1="294.0" x2="201.8" y2="266.0" stroke="rgb(0,0,0)"  stroke-width="1.0"/>
<line x1="120.0" y1="80.0" x2="100.0" y2="114.6" stroke="rgb(0,0,0)"  stroke-width="1.0"/>
<line x1="100.0" y1="114.6" x2="60.0" y2="114.6" stroke="rgb(0,0,0)"  stroke-width="1.0"/>
<line x1="94.0" y1="107.4" x2="66.0" y2="107.4" stroke="rgb(0,0,0)"  stroke-width="1.0"/>
<line x1="60.0" y1="114.6" x2="40.0" y2="80.0" stroke="rgb(0,0,0)"  stroke-width="1.0"/>
<line x1="40.0" y1="80.0" x2="60.0" y2="45.4" stroke="rgb(0,0,0)"  stroke-width="1.0"/>
<line x1="49.2" y1="78.4" x2="63.2" y2="54.2" stroke="rgb(0,0,0)"  stroke-width="1.0"/>
<line x1="60.0" y1="45.4" x2="100.0" y2="45.4" stroke="rgb(0,0,0)"  stroke-width="1.0"/>
<line x1="100.0" y1="45.4" x2="120.0" y2="80.0" stroke="rgb(0,0,0)"  stroke-width="1.0"/>
<line x1="96.8" y1="54.2" x2="110.8" y2="78.4" stroke="rgb(0,0,0)"  stroke-width="1.0"/>
<text x="154.000000" y="88.000000" fill="rgb(178,178,0)"  stroke="rgb(178,178,0)" stroke-width="1" font-size="16" >S</text>
<text x="142.000000" y="128.000000" fill="rgb(12,12,255)"  stroke="rgb(12,12,255)" stroke-width="1" font-size="16" >HN</text>
<text x="154.000000" y="248.000000" fill="rgb(255,12,12)"  stroke="rgb(255,12,12)" stroke-width="1" font-size="16" >O</text>
<text x="292.564065" y="328.000000" fill="rgb(255,12,12)"  stroke="rgb(255,12,12)" stroke-width="1" font-size="16" >O</text>
<text x="223.282032" y="208.000000" fill="rgb(255,12,12)"  stroke="rgb(255,12,12)" stroke-width="1" font-size="16" >OH</text>
<text x="194.000000" y="88.000000" fill="rgb(255,12,12)"  stroke="rgb(255,12,12)" stroke-width="1" font-size="16" >O</text>
<text x="154.000000" y="48.000000" fill="rgb(255,12,12)"  stroke="rgb(255,12,12)" stroke-width="1" font-size="16" >O</text>
<title>MFCD00524291 - OBDepict</title>
</svg>
