<?xml version="1.0"?>
<svg xmlns="http://www.w3.org/2000/svg"
xmlns:xlink="http://www.w3.org/1999/xlink" xmlns:cml="http://www.xml-cml.org/schema" width="281.871" height="284.639" x="0" y="0" font-family="sans-serif" stroke="rgb(0,0,0)" stroke-width="1"  stroke-linecap="round">
<rect x="0%" y="0%" width="100%" height="100%" stroke-width="0" fill="rgb(255,255,255)"  />
<line x1="143.9" y1="144.6" x2="178.6" y2="124.6" stroke="rgb(0,0,0)"  stroke-width="1.0"/>
<line x1="221.9" y1="76.5" x2="232.9" y2="51.9" stroke="rgb(0,0,0)"  stroke-width="1.0"/>
<line x1="109.3" y1="204.6" x2="109.3" y2="231.6" stroke="rgb(0,0,0)"  stroke-width="1.0"/>
<line x1="74.6" y1="184.6" x2="51.3" y2="198.1" stroke="rgb(0,0,0)"  stroke-width="1.0"/>
<line x1="74.6" y1="144.6" x2="51.3" y2="131.1" stroke="rgb(0,0,0)"  stroke-width="1.0"/>
<line x1="178.6" y1="124.6" x2="181.4" y2="97.8" stroke="rgb(0,0,0)"  stroke-width="1.0"/>
<line x1="195.7" y1="82.1" x2="221.9" y2="76.5" stroke="rgb(0,0,0)"  stroke-width="1.0"/>
<line x1="199.1" y1="88.7" x2="217.5" y2="84.8" stroke="rgb(0,0,0)"  stroke-width="1.0"/>
<line x1="221.9" y1="76.5" x2="235.4" y2="99.9" stroke="rgb(0,0,0)"  stroke-width="1.0"/>
<line x1="233.2" y1="120.8" x2="215.1" y2="140.9" stroke="rgb(0,0,0)"  stroke-width="1.0"/>
<line x1="215.1" y1="140.9" x2="178.6" y2="124.6" stroke="rgb(0,0,0)"  stroke-width="1.0"/>
<line x1="212.6" y1="131.9" x2="187.0" y2="120.5" stroke="rgb(0,0,0)"  stroke-width="1.0"/>
<line x1="143.9" y1="144.6" x2="143.9" y2="184.6" stroke="rgb(0,0,0)"  stroke-width="1.0"/>
<line x1="143.9" y1="184.6" x2="109.3" y2="204.6" stroke="rgb(0,0,0)"  stroke-width="1.0"/>
<line x1="135.1" y1="181.4" x2="110.9" y2="195.4" stroke="rgb(0,0,0)"  stroke-width="1.0"/>
<line x1="109.3" y1="204.6" x2="74.6" y2="184.6" stroke="rgb(0,0,0)"  stroke-width="1.0"/>
<line x1="74.6" y1="184.6" x2="74.6" y2="144.6" stroke="rgb(0,0,0)"  stroke-width="1.0"/>
<line x1="81.8" y1="178.6" x2="81.8" y2="150.6" stroke="rgb(0,0,0)"  stroke-width="1.0"/>
<line x1="74.6" y1="144.6" x2="109.3" y2="124.6" stroke="rgb(0,0,0)"  stroke-width="1.0"/>
<line x1="109.3" y1="124.6" x2="143.9" y2="144.6" stroke="rgb(0,0,0)"  stroke-width="1.0"/>
<line x1="110.9" y1="133.9" x2="135.1" y2="147.9" stroke="rgb(0,0,0)"  stroke-width="1.0"/>
<text x="176.745203" y="92.858286" fill="rgb(12,12,255)"  stroke="rgb(12,12,255)" stroke-width="1" font-size="16" >N</text>
<text x="235.871107" y="119.182834" fill="rgb(178,178,0)"  stroke="rgb(178,178,0)" stroke-width="1" font-size="16" >S</text>
<text x="234.140573" y="48.000000" fill="rgb(12,12,255)"  stroke="rgb(12,12,255)" stroke-width="1" font-size="16" >NH</text>
<text x="258.140573" y="51.680000" fill="rgb(12,12,255)"  stroke="rgb(12,12,255)" stroke-width="1" font-size="13" >2</text>
<text x="22.000000" y="132.639162" fill="rgb(165,40,40)"  stroke="rgb(165,40,40)" stroke-width="1" font-size="16" >Br</text>
<text x="22.000000" y="212.639162" fill="rgb(255,12,12)"  stroke="rgb(255,12,12)" stroke-width="1" font-size="16" >HO</text>
<text x="103.282032" y="252.639162" fill="rgb(165,40,40)"  stroke="rgb(165,40,40)" stroke-width="1" font-size="16" >Br</text>
<title>MFCD00665948 - OBDepict</title>
</svg>
