<?xml version="1.0"?>
<svg xmlns="http://www.w3.org/2000/svg"
xmlns:xlink="http://www.w3.org/1999/xlink" xmlns:cml="http://www.xml-cml.org/schema" width="564.974" height="300" x="0" y="0" font-family="sans-serif" stroke="rgb(0,0,0)" stroke-width="1"  stroke-linecap="round">
<rect x="0%" y="0%" width="100%" height="100%" stroke-width="0" fill="rgb(255,255,255)"  />
<line x1="143.9" y1="100.0" x2="178.6" y2="80.0" stroke="rgb(0,0,0)"  stroke-width="1.0"/>
<line x1="109.3" y1="160.0" x2="109.3" y2="187.0" stroke="rgb(0,0,0)"  stroke-width="1.0"/>
<line x1="74.6" y1="140.0" x2="51.3" y2="153.5" stroke="rgb(0,0,0)"  stroke-width="1.0"/>
<line x1="74.6" y1="100.0" x2="51.3" y2="86.5" stroke="rgb(0,0,0)"  stroke-width="1.0"/>
<line x1="40.0" y1="67.0" x2="40.0" y2="40.0" stroke="rgb(0,0,0)"  stroke-width="1.0"/>
<line x1="40.0" y1="173.0" x2="40.0" y2="200.0" stroke="rgb(0,0,0)"  stroke-width="1.0"/>
<line x1="120.5" y1="206.5" x2="143.9" y2="220.0" stroke="rgb(0,0,0)"  stroke-width="1.0"/>
<line x1="178.6" y1="80.0" x2="201.9" y2="93.5" stroke="rgb(0,0,0)"  stroke-width="1.0"/>
<line x1="175.6" y1="80.0" x2="175.6" y2="53.0" stroke="rgb(0,0,0)"  stroke-width="1.0"/>
<line x1="181.6" y1="80.0" x2="181.6" y2="53.0" stroke="rgb(0,0,0)"  stroke-width="1.0"/>
<line x1="224.5" y1="93.5" x2="247.8" y2="80.0" stroke="rgb(0,0,0)"  stroke-width="1.0"/>
<line x1="247.8" y1="80.0" x2="282.5" y2="100.0" stroke="rgb(0,0,0)"  stroke-width="1.0"/>
<line x1="282.5" y1="100.0" x2="282.5" y2="127.0" stroke="rgb(0,0,0)"  stroke-width="1.0"/>
<line x1="281.0" y1="97.4" x2="304.4" y2="83.9" stroke="rgb(0,0,0)"  stroke-width="1.0"/>
<line x1="284.0" y1="102.6" x2="307.4" y2="89.1" stroke="rgb(0,0,0)"  stroke-width="1.0"/>
<line x1="293.7" y1="146.5" x2="305.9" y2="153.5" stroke="rgb(0,0,0)"  stroke-width="1.0"/>
<line x1="326.9" y1="150.9" x2="350.3" y2="137.4" stroke="rgb(0,0,0)"  stroke-width="1.0"/>
<line x1="329.9" y1="156.1" x2="353.3" y2="142.6" stroke="rgb(0,0,0)"  stroke-width="1.0"/>
<line x1="351.8" y1="140.0" x2="386.4" y2="160.0" stroke="rgb(0,0,0)"  stroke-width="1.0"/>
<line x1="455.7" y1="200.0" x2="479.1" y2="213.5" stroke="rgb(0,0,0)"  stroke-width="1.0"/>
<line x1="490.3" y1="233.0" x2="490.3" y2="247.0" stroke="rgb(0,0,0)"  stroke-width="1.0"/>
<line x1="501.6" y1="213.5" x2="513.7" y2="206.5" stroke="rgb(0,0,0)"  stroke-width="1.0"/>
<line x1="143.9" y1="100.0" x2="143.9" y2="140.0" stroke="rgb(0,0,0)"  stroke-width="1.0"/>
<line x1="136.7" y1="106.0" x2="136.7" y2="134.0" stroke="rgb(0,0,0)"  stroke-width="1.0"/>
<line x1="143.9" y1="140.0" x2="109.3" y2="160.0" stroke="rgb(0,0,0)"  stroke-width="1.0"/>
<line x1="109.3" y1="160.0" x2="74.6" y2="140.0" stroke="rgb(0,0,0)"  stroke-width="1.0"/>
<line x1="107.7" y1="150.8" x2="83.4" y2="136.8" stroke="rgb(0,0,0)"  stroke-width="1.0"/>
<line x1="74.6" y1="140.0" x2="74.6" y2="100.0" stroke="rgb(0,0,0)"  stroke-width="1.0"/>
<line x1="74.6" y1="100.0" x2="109.3" y2="80.0" stroke="rgb(0,0,0)"  stroke-width="1.0"/>
<line x1="83.4" y1="103.2" x2="107.7" y2="89.2" stroke="rgb(0,0,0)"  stroke-width="1.0"/>
<line x1="109.3" y1="80.0" x2="143.9" y2="100.0" stroke="rgb(0,0,0)"  stroke-width="1.0"/>
<line x1="386.4" y1="160.0" x2="421.1" y2="140.0" stroke="rgb(0,0,0)"  stroke-width="1.0"/>
<line x1="421.1" y1="140.0" x2="455.7" y2="160.0" stroke="rgb(0,0,0)"  stroke-width="1.0"/>
<line x1="422.6" y1="149.2" x2="446.9" y2="163.2" stroke="rgb(0,0,0)"  stroke-width="1.0"/>
<line x1="455.7" y1="160.0" x2="455.7" y2="200.0" stroke="rgb(0,0,0)"  stroke-width="1.0"/>
<line x1="455.7" y1="200.0" x2="421.1" y2="220.0" stroke="rgb(0,0,0)"  stroke-width="1.0"/>
<line x1="446.9" y1="196.8" x2="422.6" y2="210.8" stroke="rgb(0,0,0)"  stroke-width="1.0"/>
<line x1="421.1" y1="220.0" x2="386.4" y2="200.0" stroke="rgb(0,0,0)"  stroke-width="1.0"/>
<line x1="386.4" y1="200.0" x2="386.4" y2="160.0" stroke="rgb(0,0,0)"  stroke-width="1.0"/>
<line x1="393.6" y1="194.0" x2="393.6" y2="166.0" stroke="rgb(0,0,0)"  stroke-width="1.0"/>
<text x="34.000000" y="88.000000" fill="rgb(255,12,12)"  stroke="rgb(255,12,12)" stroke-width="1" font-size="16" >O</text>
<text x="34.000000" y="168.000000" fill="rgb(255,12,12)"  stroke="rgb(255,12,12)" stroke-width="1" font-size="16" >O</text>
<text x="103.282032" y="208.000000" fill="rgb(255,12,12)"  stroke="rgb(255,12,12)" stroke-width="1" font-size="16" >O</text>
<text x="207.205081" y="108.000000" fill="rgb(12,12,255)"  stroke="rgb(12,12,255)" stroke-width="1" font-size="16" >N</text>
<text x="207.205081" y="124.000000" fill="rgb(12,12,255)"  stroke="rgb(12,12,255)" stroke-width="1" font-size="16" >H</text>
<text x="264.487113" y="148.000000" fill="rgb(12,12,255)"  stroke="rgb(12,12,255)" stroke-width="1" font-size="16" >HN</text>
<text x="311.128129" y="168.000000" fill="rgb(12,12,255)"  stroke="rgb(12,12,255)" stroke-width="1" font-size="16" >N</text>
<text x="495.133210" y="215.968000" fill="rgb(12,12,255)"  stroke="rgb(12,12,255)" stroke-width="1" font-size="16" >+</text>
<text x="484.333210" y="228.000000" fill="rgb(12,12,255)"  stroke="rgb(12,12,255)" stroke-width="1" font-size="16" >N</text>
<text x="495.133210" y="245.888000" fill="rgb(255,12,12)"  stroke="rgb(255,12,12)" stroke-width="1" font-size="16" >_</text>
<text x="484.333210" y="268.000000" fill="rgb(255,12,12)"  stroke="rgb(255,12,12)" stroke-width="1" font-size="16" >O</text>
<text x="518.974226" y="208.000000" fill="rgb(255,12,12)"  stroke="rgb(255,12,12)" stroke-width="1" font-size="16" >OH</text>
<text x="311.128129" y="88.000000" fill="rgb(255,12,12)"  stroke="rgb(255,12,12)" stroke-width="1" font-size="16" >O</text>
<text x="172.564065" y="48.000000" fill="rgb(255,12,12)"  stroke="rgb(255,12,12)" stroke-width="1" font-size="16" >O</text>
<title>MFCD00341776 - OBDepict</title>
</svg>
