<?xml version="1.0"?>
<svg xmlns="http://www.w3.org/2000/svg"
xmlns:xlink="http://www.w3.org/1999/xlink" xmlns:cml="http://www.xml-cml.org/schema" width="351.153" height="268.097" x="0" y="0" font-family="sans-serif" stroke="rgb(0,0,0)" stroke-width="1"  stroke-linecap="round">
<rect x="0%" y="0%" width="100%" height="100%" stroke-width="0" fill="rgb(255,255,255)"  />
<line x1="143.9" y1="120.0" x2="167.3" y2="106.5" stroke="rgb(0,0,0)"  stroke-width="1.0"/>
<line x1="143.9" y1="160.0" x2="178.6" y2="180.0" stroke="rgb(0,0,0)"  stroke-width="1.0"/>
<line x1="112.3" y1="180.0" x2="112.3" y2="207.0" stroke="rgb(0,0,0)"  stroke-width="1.0"/>
<line x1="106.3" y1="180.0" x2="106.3" y2="207.0" stroke="rgb(0,0,0)"  stroke-width="1.0"/>
<line x1="178.6" y1="180.0" x2="201.9" y2="166.5" stroke="rgb(0,0,0)"  stroke-width="1.0"/>
<line x1="181.6" y1="180.0" x2="181.6" y2="207.0" stroke="rgb(0,0,0)"  stroke-width="1.0"/>
<line x1="175.6" y1="180.0" x2="175.6" y2="207.0" stroke="rgb(0,0,0)"  stroke-width="1.0"/>
<line x1="224.5" y1="166.5" x2="247.8" y2="180.0" stroke="rgb(0,0,0)"  stroke-width="1.0"/>
<line x1="247.8" y1="180.0" x2="284.4" y2="163.7" stroke="rgb(0,0,0)"  stroke-width="1.0"/>
<line x1="284.4" y1="163.7" x2="311.2" y2="193.5" stroke="rgb(0,0,0)"  stroke-width="1.0"/>
<line x1="311.2" y1="193.5" x2="291.2" y2="228.1" stroke="rgb(0,0,0)"  stroke-width="1.0"/>
<line x1="291.2" y1="228.1" x2="252.0" y2="219.8" stroke="rgb(0,0,0)"  stroke-width="1.0"/>
<line x1="252.0" y1="219.8" x2="247.8" y2="180.0" stroke="rgb(0,0,0)"  stroke-width="1.0"/>
<line x1="74.6" y1="120.0" x2="109.3" y2="100.0" stroke="rgb(0,0,0)"  stroke-width="1.0"/>
<line x1="109.3" y1="100.0" x2="143.9" y2="120.0" stroke="rgb(0,0,0)"  stroke-width="1.0"/>
<line x1="143.9" y1="120.0" x2="143.9" y2="160.0" stroke="rgb(0,0,0)"  stroke-width="1.0"/>
<line x1="136.7" y1="126.0" x2="136.7" y2="154.0" stroke="rgb(0,0,0)"  stroke-width="1.0"/>
<line x1="143.9" y1="160.0" x2="109.3" y2="180.0" stroke="rgb(0,0,0)"  stroke-width="1.0"/>
<line x1="109.3" y1="180.0" x2="85.9" y2="166.5" stroke="rgb(0,0,0)"  stroke-width="1.0"/>
<line x1="74.6" y1="147.0" x2="74.6" y2="120.0" stroke="rgb(0,0,0)"  stroke-width="1.0"/>
<line x1="40.0" y1="60.0" x2="74.6" y2="40.0" stroke="rgb(0,0,0)"  stroke-width="1.0"/>
<line x1="48.8" y1="63.2" x2="73.0" y2="49.2" stroke="rgb(0,0,0)"  stroke-width="1.0"/>
<line x1="74.6" y1="40.0" x2="109.3" y2="60.0" stroke="rgb(0,0,0)"  stroke-width="1.0"/>
<line x1="109.3" y1="60.0" x2="109.3" y2="100.0" stroke="rgb(0,0,0)"  stroke-width="1.0"/>
<line x1="102.1" y1="66.0" x2="102.1" y2="94.0" stroke="rgb(0,0,0)"  stroke-width="1.0"/>
<line x1="74.6" y1="120.0" x2="40.0" y2="100.0" stroke="rgb(0,0,0)"  stroke-width="1.0"/>
<line x1="73.0" y1="110.8" x2="48.8" y2="96.8" stroke="rgb(0,0,0)"  stroke-width="1.0"/>
<line x1="40.0" y1="100.0" x2="40.0" y2="60.0" stroke="rgb(0,0,0)"  stroke-width="1.0"/>
<text x="56.641016" y="168.000000" fill="rgb(12,12,255)"  stroke="rgb(12,12,255)" stroke-width="1" font-size="16" >HN</text>
<text x="103.282032" y="228.000000" fill="rgb(255,12,12)"  stroke="rgb(255,12,12)" stroke-width="1" font-size="16" >O</text>
<text x="207.205081" y="168.000000" fill="rgb(12,12,255)"  stroke="rgb(12,12,255)" stroke-width="1" font-size="16" >N</text>
<text x="207.205081" y="152.000000" fill="rgb(12,12,255)"  stroke="rgb(12,12,255)" stroke-width="1" font-size="16" >H</text>
<text x="172.564065" y="228.000000" fill="rgb(255,12,12)"  stroke="rgb(255,12,12)" stroke-width="1" font-size="16" >O</text>
<text x="172.564065" y="108.000000" fill="rgb(255,12,12)"  stroke="rgb(255,12,12)" stroke-width="1" font-size="16" >OH</text>
<title>MFCD00616745 - OBDepict</title>
</svg>
