<?xml version="1.0"?>
<svg xmlns="http://www.w3.org/2000/svg"
xmlns:xlink="http://www.w3.org/1999/xlink" xmlns:cml="http://www.xml-cml.org/schema" width="345.684" height="292.903" x="0" y="0" font-family="sans-serif" stroke="rgb(0,0,0)" stroke-width="1"  stroke-linecap="round">
<rect x="0%" y="0%" width="100%" height="100%" stroke-width="0" fill="rgb(255,255,255)"  />
<line x1="207.6" y1="136.8" x2="140.6" y2="98.1" stroke="rgb(0,0,0)"  stroke-width="1.0"/>
<line x1="207.6" y1="136.8" x2="174.1" y2="156.1" stroke="rgb(0,0,0)"  stroke-width="1.0"/>
<line x1="275.2" y1="166.8" x2="280.4" y2="178.4" stroke="rgb(0,0,0)"  stroke-width="1.0"/>
<line x1="269.7" y1="169.2" x2="274.9" y2="180.8" stroke="rgb(0,0,0)"  stroke-width="1.0"/>
<line x1="280.4" y1="154.5" x2="293.1" y2="155.8" stroke="rgb(0,0,0)"  stroke-width="1.0"/>
<line x1="279.8" y1="160.5" x2="292.4" y2="161.8" stroke="rgb(0,0,0)"  stroke-width="1.0"/>
<line x1="73.5" y1="98.1" x2="51.3" y2="110.9" stroke="rgb(0,0,0)"  stroke-width="1.0"/>
<line x1="73.5" y1="59.4" x2="51.3" y2="46.5" stroke="rgb(0,0,0)"  stroke-width="1.0"/>
<line x1="140.6" y1="214.2" x2="140.6" y2="239.9" stroke="rgb(0,0,0)"  stroke-width="1.0"/>
<line x1="107.0" y1="194.8" x2="84.8" y2="207.7" stroke="rgb(0,0,0)"  stroke-width="1.0"/>
<line x1="207.6" y1="136.8" x2="230.4" y2="105.5" stroke="rgb(0,0,0)"  stroke-width="1.0"/>
<line x1="230.4" y1="105.5" x2="267.2" y2="117.4" stroke="rgb(0,0,0)"  stroke-width="1.0"/>
<line x1="267.2" y1="117.4" x2="267.2" y2="143.1" stroke="rgb(0,0,0)"  stroke-width="1.0"/>
<line x1="254.8" y1="160.1" x2="242.7" y2="164.1" stroke="rgb(0,0,0)"  stroke-width="1.0"/>
<line x1="222.7" y1="157.6" x2="207.6" y2="136.8" stroke="rgb(0,0,0)"  stroke-width="1.0"/>
<line x1="296.0" y1="91.5" x2="267.2" y2="117.4" stroke="rgb(0,0,0)"  stroke-width="1.0"/>
<line x1="286.7" y1="90.2" x2="266.8" y2="108.1" stroke="rgb(0,0,0)"  stroke-width="1.0"/>
<line x1="230.4" y1="105.5" x2="222.3" y2="67.6" stroke="rgb(0,0,0)"  stroke-width="1.0"/>
<line x1="236.2" y1="98.1" x2="230.6" y2="72.0" stroke="rgb(0,0,0)"  stroke-width="1.0"/>
<line x1="222.3" y1="67.6" x2="251.1" y2="41.7" stroke="rgb(0,0,0)"  stroke-width="1.0"/>
<line x1="251.1" y1="41.7" x2="287.9" y2="53.7" stroke="rgb(0,0,0)"  stroke-width="1.0"/>
<line x1="254.6" y1="50.4" x2="280.0" y2="58.6" stroke="rgb(0,0,0)"  stroke-width="1.0"/>
<line x1="287.9" y1="53.7" x2="296.0" y2="91.5" stroke="rgb(0,0,0)"  stroke-width="1.0"/>
<line x1="140.6" y1="98.1" x2="107.0" y2="117.4" stroke="rgb(0,0,0)"  stroke-width="1.0"/>
<line x1="107.0" y1="117.4" x2="73.5" y2="98.1" stroke="rgb(0,0,0)"  stroke-width="1.0"/>
<line x1="105.5" y1="108.2" x2="82.3" y2="94.8" stroke="rgb(0,0,0)"  stroke-width="1.0"/>
<line x1="73.5" y1="98.1" x2="73.5" y2="59.4" stroke="rgb(0,0,0)"  stroke-width="1.0"/>
<line x1="73.5" y1="59.4" x2="107.0" y2="40.0" stroke="rgb(0,0,0)"  stroke-width="1.0"/>
<line x1="82.3" y1="62.6" x2="105.5" y2="49.2" stroke="rgb(0,0,0)"  stroke-width="1.0"/>
<line x1="107.0" y1="40.0" x2="140.6" y2="59.4" stroke="rgb(0,0,0)"  stroke-width="1.0"/>
<line x1="140.6" y1="59.4" x2="140.6" y2="98.1" stroke="rgb(0,0,0)"  stroke-width="1.0"/>
<line x1="133.4" y1="65.4" x2="133.4" y2="92.1" stroke="rgb(0,0,0)"  stroke-width="1.0"/>
<line x1="174.1" y1="156.1" x2="174.1" y2="194.8" stroke="rgb(0,0,0)"  stroke-width="1.0"/>
<line x1="174.1" y1="194.8" x2="140.6" y2="214.2" stroke="rgb(0,0,0)"  stroke-width="1.0"/>
<line x1="165.3" y1="191.6" x2="142.2" y2="205.0" stroke="rgb(0,0,0)"  stroke-width="1.0"/>
<line x1="140.6" y1="214.2" x2="107.0" y2="194.8" stroke="rgb(0,0,0)"  stroke-width="1.0"/>
<line x1="107.0" y1="194.8" x2="107.0" y2="156.1" stroke="rgb(0,0,0)"  stroke-width="1.0"/>
<line x1="114.2" y1="188.8" x2="114.2" y2="162.1" stroke="rgb(0,0,0)"  stroke-width="1.0"/>
<line x1="107.0" y1="156.1" x2="140.6" y2="136.8" stroke="rgb(0,0,0)"  stroke-width="1.0"/>
<line x1="140.6" y1="136.8" x2="174.1" y2="156.1" stroke="rgb(0,0,0)"  stroke-width="1.0"/>
<line x1="142.2" y1="146.0" x2="165.3" y2="159.4" stroke="rgb(0,0,0)"  stroke-width="1.0"/>
<text x="261.185889" y="164.129032" fill="rgb(178,178,0)"  stroke="rgb(178,178,0)" stroke-width="1" font-size="16" >S</text>
<text x="224.370798" y="176.090980" fill="rgb(255,12,12)"  stroke="rgb(255,12,12)" stroke-width="1" font-size="16" >O</text>
<text x="276.930533" y="199.492082" fill="rgb(255,12,12)"  stroke="rgb(255,12,12)" stroke-width="1" font-size="16" >O</text>
<text x="299.683510" y="168.175295" fill="rgb(255,12,12)"  stroke="rgb(255,12,12)" stroke-width="1" font-size="16" >O</text>
<text x="22.000000" y="48.000000" fill="rgb(255,12,12)"  stroke="rgb(255,12,12)" stroke-width="1" font-size="16" >HO</text>
<text x="22.000000" y="125.419355" fill="rgb(255,12,12)"  stroke="rgb(255,12,12)" stroke-width="1" font-size="16" >HO</text>
<text x="55.523564" y="222.193548" fill="rgb(255,12,12)"  stroke="rgb(255,12,12)" stroke-width="1" font-size="16" >HO</text>
<text x="134.570692" y="260.903226" fill="rgb(255,12,12)"  stroke="rgb(255,12,12)" stroke-width="1" font-size="16" >OH</text>
<title>MFCD00274332 - OBDepict</title>
</svg>
