<?xml version="1.0"?>
<svg xmlns="http://www.w3.org/2000/svg"
xmlns:xlink="http://www.w3.org/1999/xlink" xmlns:cml="http://www.xml-cml.org/schema" width="487.964" height="320" x="0" y="0" font-family="sans-serif" stroke="rgb(0,0,0)" stroke-width="1"  stroke-linecap="round">
<rect x="0%" y="0%" width="100%" height="100%" stroke-width="0" fill="rgb(255,255,255)"  />
<line x1="351.8" y1="80.0" x2="351.8" y2="40.0" stroke="rgb(0,0,0)"  stroke-width="1.0"/>
<line x1="351.8" y1="160.0" x2="351.8" y2="187.0" stroke="rgb(0,0,0)"  stroke-width="1.0"/>
<line x1="340.5" y1="206.5" x2="317.1" y2="220.0" stroke="rgb(0,0,0)"  stroke-width="1.0"/>
<line x1="317.1" y1="220.0" x2="282.5" y2="200.0" stroke="rgb(0,0,0)"  stroke-width="1.0"/>
<line x1="282.5" y1="200.0" x2="259.1" y2="213.5" stroke="rgb(0,0,0)"  stroke-width="1.0"/>
<line x1="279.5" y1="200.0" x2="279.5" y2="173.0" stroke="rgb(0,0,0)"  stroke-width="1.0"/>
<line x1="285.5" y1="200.0" x2="285.5" y2="173.0" stroke="rgb(0,0,0)"  stroke-width="1.0"/>
<line x1="236.6" y1="213.5" x2="224.5" y2="206.5" stroke="rgb(0,0,0)"  stroke-width="1.0"/>
<line x1="201.9" y1="206.5" x2="178.6" y2="220.0" stroke="rgb(0,0,0)"  stroke-width="1.0"/>
<line x1="178.6" y1="220.0" x2="178.6" y2="247.0" stroke="rgb(0,0,0)"  stroke-width="1.0"/>
<line x1="177.1" y1="222.6" x2="153.7" y2="209.1" stroke="rgb(0,0,0)"  stroke-width="1.0"/>
<line x1="180.1" y1="217.4" x2="156.7" y2="203.9" stroke="rgb(0,0,0)"  stroke-width="1.0"/>
<line x1="167.3" y1="266.5" x2="143.9" y2="280.0" stroke="rgb(0,0,0)"  stroke-width="1.0"/>
<line x1="143.9" y1="280.0" x2="109.3" y2="260.0" stroke="rgb(0,0,0)"  stroke-width="1.0"/>
<line x1="448.0" y1="120.0" x2="424.5" y2="87.6" stroke="rgb(0,0,0)"  stroke-width="1.0"/>
<line x1="424.5" y1="87.6" x2="386.4" y2="100.0" stroke="rgb(0,0,0)"  stroke-width="1.0"/>
<line x1="386.4" y1="100.0" x2="386.4" y2="140.0" stroke="rgb(0,0,0)"  stroke-width="1.0"/>
<line x1="386.4" y1="140.0" x2="424.5" y2="152.4" stroke="rgb(0,0,0)"  stroke-width="1.0"/>
<line x1="424.5" y1="152.4" x2="448.0" y2="120.0" stroke="rgb(0,0,0)"  stroke-width="1.0"/>
<line x1="386.4" y1="100.0" x2="351.8" y2="80.0" stroke="rgb(0,0,0)"  stroke-width="1.0"/>
<line x1="377.6" y1="103.2" x2="353.4" y2="89.2" stroke="rgb(0,0,0)"  stroke-width="1.0"/>
<line x1="351.8" y1="80.0" x2="317.1" y2="100.0" stroke="rgb(0,0,0)"  stroke-width="1.0"/>
<line x1="317.1" y1="100.0" x2="317.1" y2="140.0" stroke="rgb(0,0,0)"  stroke-width="1.0"/>
<line x1="324.3" y1="106.0" x2="324.3" y2="134.0" stroke="rgb(0,0,0)"  stroke-width="1.0"/>
<line x1="317.1" y1="140.0" x2="351.8" y2="160.0" stroke="rgb(0,0,0)"  stroke-width="1.0"/>
<line x1="351.8" y1="160.0" x2="386.4" y2="140.0" stroke="rgb(0,0,0)"  stroke-width="1.0"/>
<line x1="353.4" y1="150.8" x2="377.6" y2="136.8" stroke="rgb(0,0,0)"  stroke-width="1.0"/>
<line x1="109.3" y1="260.0" x2="109.3" y2="220.0" stroke="rgb(0,0,0)"  stroke-width="1.0"/>
<line x1="109.3" y1="220.0" x2="74.6" y2="200.0" stroke="rgb(0,0,0)"  stroke-width="1.0"/>
<line x1="100.5" y1="223.2" x2="76.2" y2="209.2" stroke="rgb(0,0,0)"  stroke-width="1.0"/>
<line x1="74.6" y1="200.0" x2="40.0" y2="220.0" stroke="rgb(0,0,0)"  stroke-width="1.0"/>
<line x1="40.0" y1="220.0" x2="40.0" y2="260.0" stroke="rgb(0,0,0)"  stroke-width="1.0"/>
<line x1="47.2" y1="226.0" x2="47.2" y2="254.0" stroke="rgb(0,0,0)"  stroke-width="1.0"/>
<line x1="40.0" y1="260.0" x2="74.6" y2="280.0" stroke="rgb(0,0,0)"  stroke-width="1.0"/>
<line x1="74.6" y1="280.0" x2="109.3" y2="260.0" stroke="rgb(0,0,0)"  stroke-width="1.0"/>
<line x1="76.2" y1="270.8" x2="100.5" y2="256.8" stroke="rgb(0,0,0)"  stroke-width="1.0"/>
<text x="345.769145" y="208.000000" fill="rgb(255,12,12)"  stroke="rgb(255,12,12)" stroke-width="1" font-size="16" >O</text>
<text x="241.846097" y="228.000000" fill="rgb(12,12,255)"  stroke="rgb(12,12,255)" stroke-width="1" font-size="16" >N</text>
<text x="241.846097" y="244.000000" fill="rgb(12,12,255)"  stroke="rgb(12,12,255)" stroke-width="1" font-size="16" >H</text>
<text x="207.205081" y="208.000000" fill="rgb(12,12,255)"  stroke="rgb(12,12,255)" stroke-width="1" font-size="16" >N</text>
<text x="207.205081" y="192.000000" fill="rgb(12,12,255)"  stroke="rgb(12,12,255)" stroke-width="1" font-size="16" >H</text>
<text x="172.564065" y="268.000000" fill="rgb(12,12,255)"  stroke="rgb(12,12,255)" stroke-width="1" font-size="16" >NH</text>
<text x="137.923048" y="208.000000" fill="rgb(178,178,0)"  stroke="rgb(178,178,0)" stroke-width="1" font-size="16" >S</text>
<text x="276.487113" y="168.000000" fill="rgb(255,12,12)"  stroke="rgb(255,12,12)" stroke-width="1" font-size="16" >O</text>
<title>MFCD01566836 - OBDepict</title>
</svg>
