<?xml version="1.0"?>
<svg xmlns="http://www.w3.org/2000/svg"
xmlns:xlink="http://www.w3.org/1999/xlink" xmlns:cml="http://www.xml-cml.org/schema" width="371.328" height="306.842" x="0" y="0" font-family="sans-serif" stroke="rgb(0,0,0)" stroke-width="1"  stroke-linecap="round">
<rect x="0%" y="0%" width="100%" height="100%" stroke-width="0" fill="rgb(255,255,255)"  />
<line x1="184.0" y1="138.4" x2="204.1" y2="120.3" stroke="rgb(0,0,0)"  stroke-width="1.0"/>
<line x1="263.6" y1="66.8" x2="283.6" y2="48.7" stroke="rgb(0,0,0)"  stroke-width="1.0"/>
<line x1="305.6" y1="44.0" x2="331.3" y2="52.4" stroke="rgb(0,0,0)"  stroke-width="1.0"/>
<line x1="178.6" y1="186.8" x2="213.2" y2="206.8" stroke="rgb(0,0,0)"  stroke-width="1.0"/>
<line x1="216.2" y1="206.8" x2="216.2" y2="246.8" stroke="rgb(0,0,0)"  stroke-width="1.0"/>
<line x1="210.2" y1="206.8" x2="210.2" y2="246.8" stroke="rgb(0,0,0)"  stroke-width="1.0"/>
<line x1="213.2" y1="246.8" x2="189.8" y2="260.3" stroke="rgb(0,0,0)"  stroke-width="1.0"/>
<line x1="167.3" y1="260.3" x2="143.9" y2="246.8" stroke="rgb(0,0,0)"  stroke-width="1.0"/>
<line x1="74.6" y1="206.8" x2="51.3" y2="193.3" stroke="rgb(0,0,0)"  stroke-width="1.0"/>
<line x1="175.7" y1="160.0" x2="178.6" y2="186.8" stroke="rgb(0,0,0)"  stroke-width="1.0"/>
<line x1="178.6" y1="186.8" x2="154.1" y2="197.7" stroke="rgb(0,0,0)"  stroke-width="1.0"/>
<line x1="170.2" y1="182.7" x2="153.0" y2="190.4" stroke="rgb(0,0,0)"  stroke-width="1.0"/>
<line x1="133.3" y1="193.5" x2="124.0" y2="183.0" stroke="rgb(0,0,0)"  stroke-width="1.0"/>
<line x1="121.9" y1="162.0" x2="128.7" y2="150.2" stroke="rgb(0,0,0)"  stroke-width="1.0"/>
<line x1="129.1" y1="163.8" x2="133.9" y2="155.5" stroke="rgb(0,0,0)"  stroke-width="1.0"/>
<line x1="148.0" y1="141.4" x2="161.7" y2="144.4" stroke="rgb(0,0,0)"  stroke-width="1.0"/>
<line x1="204.1" y1="120.3" x2="195.8" y2="81.2" stroke="rgb(0,0,0)"  stroke-width="1.0"/>
<line x1="195.8" y1="81.2" x2="225.5" y2="54.4" stroke="rgb(0,0,0)"  stroke-width="1.0"/>
<line x1="205.1" y1="82.5" x2="225.9" y2="63.8" stroke="rgb(0,0,0)"  stroke-width="1.0"/>
<line x1="225.5" y1="54.4" x2="263.6" y2="66.8" stroke="rgb(0,0,0)"  stroke-width="1.0"/>
<line x1="263.6" y1="66.8" x2="271.9" y2="105.9" stroke="rgb(0,0,0)"  stroke-width="1.0"/>
<line x1="257.8" y1="74.1" x2="263.6" y2="101.5" stroke="rgb(0,0,0)"  stroke-width="1.0"/>
<line x1="271.9" y1="105.9" x2="242.2" y2="132.7" stroke="rgb(0,0,0)"  stroke-width="1.0"/>
<line x1="242.2" y1="132.7" x2="204.1" y2="120.3" stroke="rgb(0,0,0)"  stroke-width="1.0"/>
<line x1="238.7" y1="124.0" x2="212.0" y2="115.3" stroke="rgb(0,0,0)"  stroke-width="1.0"/>
<line x1="143.9" y1="246.8" x2="109.3" y2="266.8" stroke="rgb(0,0,0)"  stroke-width="1.0"/>
<line x1="109.3" y1="266.8" x2="74.6" y2="246.8" stroke="rgb(0,0,0)"  stroke-width="1.0"/>
<line x1="107.7" y1="257.6" x2="83.4" y2="243.6" stroke="rgb(0,0,0)"  stroke-width="1.0"/>
<line x1="74.6" y1="246.8" x2="74.6" y2="206.8" stroke="rgb(0,0,0)"  stroke-width="1.0"/>
<line x1="74.6" y1="206.8" x2="109.3" y2="186.8" stroke="rgb(0,0,0)"  stroke-width="1.0"/>
<line x1="83.4" y1="210.1" x2="107.7" y2="196.1" stroke="rgb(0,0,0)"  stroke-width="1.0"/>
<line x1="109.3" y1="186.8" x2="143.9" y2="206.8" stroke="rgb(0,0,0)"  stroke-width="1.0"/>
<line x1="143.9" y1="206.8" x2="143.9" y2="246.8" stroke="rgb(0,0,0)"  stroke-width="1.0"/>
<line x1="136.7" y1="212.8" x2="136.7" y2="240.8" stroke="rgb(0,0,0)"  stroke-width="1.0"/>
<text x="168.382926" y="155.060897" fill="rgb(12,12,255)"  stroke="rgb(12,12,255)" stroke-width="1" font-size="16" >N</text>
<text x="287.286098" y="48.000000" fill="rgb(255,12,12)"  stroke="rgb(255,12,12)" stroke-width="1" font-size="16" >O</text>
<text x="136.022246" y="211.111239" fill="rgb(12,12,255)"  stroke="rgb(12,12,255)" stroke-width="1" font-size="16" >N</text>
<text x="109.257022" y="181.385446" fill="rgb(12,12,255)"  stroke="rgb(12,12,255)" stroke-width="1" font-size="16" >N</text>
<text x="129.257022" y="146.744429" fill="rgb(12,12,255)"  stroke="rgb(12,12,255)" stroke-width="1" font-size="16" >N</text>
<text x="172.564065" y="274.841773" fill="rgb(12,12,255)"  stroke="rgb(12,12,255)" stroke-width="1" font-size="16" >N</text>
<text x="172.564065" y="290.841773" fill="rgb(12,12,255)"  stroke="rgb(12,12,255)" stroke-width="1" font-size="16" >H</text>
<text x="22.000000" y="194.841773" fill="rgb(30,239,30)"  stroke="rgb(30,239,30)" stroke-width="1" font-size="16" >Cl</text>
<title>MFCD00114759 - OBDepict</title>
</svg>
