<?xml version="1.0"?>
<svg xmlns="http://www.w3.org/2000/svg"
xmlns:xlink="http://www.w3.org/1999/xlink" xmlns:cml="http://www.xml-cml.org/schema" width="280" height="307.23" x="0" y="0" font-family="sans-serif" stroke="rgb(0,0,0)" stroke-width="1"  stroke-linecap="round">
<rect x="0%" y="0%" width="100%" height="100%" stroke-width="0" fill="rgb(255,255,255)"  />
<line x1="220.0" y1="163.3" x2="240.0" y2="197.9" stroke="rgb(0,0,0)"  stroke-width="1.0"/>
<line x1="240.0" y1="197.9" x2="220.0" y2="232.6" stroke="rgb(0,0,0)"  stroke-width="1.0"/>
<line x1="220.0" y1="232.6" x2="193.0" y2="232.6" stroke="rgb(0,0,0)"  stroke-width="1.0"/>
<line x1="222.6" y1="231.1" x2="236.1" y2="254.5" stroke="rgb(0,0,0)"  stroke-width="1.0"/>
<line x1="217.4" y1="234.1" x2="230.9" y2="257.5" stroke="rgb(0,0,0)"  stroke-width="1.0"/>
<line x1="173.5" y1="221.3" x2="166.5" y2="209.2" stroke="rgb(0,0,0)"  stroke-width="1.0"/>
<line x1="147.0" y1="200.9" x2="120.0" y2="200.9" stroke="rgb(0,0,0)"  stroke-width="1.0"/>
<line x1="147.0" y1="194.9" x2="120.0" y2="194.9" stroke="rgb(0,0,0)"  stroke-width="1.0"/>
<line x1="120.0" y1="197.9" x2="100.0" y2="163.3" stroke="rgb(0,0,0)"  stroke-width="1.0"/>
<line x1="60.0" y1="163.3" x2="46.5" y2="186.7" stroke="rgb(0,0,0)"  stroke-width="1.0"/>
<line x1="171.9" y1="120.0" x2="206.5" y2="100.0" stroke="rgb(0,0,0)"  stroke-width="1.0"/>
<line x1="180.7" y1="123.2" x2="204.9" y2="109.2" stroke="rgb(0,0,0)"  stroke-width="1.0"/>
<line x1="206.5" y1="100.0" x2="226.6" y2="118.1" stroke="rgb(0,0,0)"  stroke-width="1.0"/>
<line x1="230.9" y1="138.8" x2="220.0" y2="163.3" stroke="rgb(0,0,0)"  stroke-width="1.0"/>
<line x1="223.5" y1="137.7" x2="215.9" y2="154.9" stroke="rgb(0,0,0)"  stroke-width="1.0"/>
<line x1="220.0" y1="163.3" x2="193.1" y2="160.5" stroke="rgb(0,0,0)"  stroke-width="1.0"/>
<line x1="177.5" y1="146.4" x2="171.9" y2="120.0" stroke="rgb(0,0,0)"  stroke-width="1.0"/>
<line x1="137.3" y1="60.0" x2="171.9" y2="40.0" stroke="rgb(0,0,0)"  stroke-width="1.0"/>
<line x1="171.9" y1="40.0" x2="206.5" y2="60.0" stroke="rgb(0,0,0)"  stroke-width="1.0"/>
<line x1="173.5" y1="49.2" x2="197.7" y2="63.2" stroke="rgb(0,0,0)"  stroke-width="1.0"/>
<line x1="206.5" y1="60.0" x2="206.5" y2="100.0" stroke="rgb(0,0,0)"  stroke-width="1.0"/>
<line x1="171.9" y1="120.0" x2="137.3" y2="100.0" stroke="rgb(0,0,0)"  stroke-width="1.0"/>
<line x1="137.3" y1="100.0" x2="137.3" y2="60.0" stroke="rgb(0,0,0)"  stroke-width="1.0"/>
<line x1="144.5" y1="94.0" x2="144.5" y2="66.0" stroke="rgb(0,0,0)"  stroke-width="1.0"/>
<line x1="100.0" y1="163.3" x2="60.0" y2="163.3" stroke="rgb(0,0,0)"  stroke-width="1.0"/>
<line x1="94.0" y1="156.1" x2="66.0" y2="156.1" stroke="rgb(0,0,0)"  stroke-width="1.0"/>
<line x1="60.0" y1="163.3" x2="40.0" y2="128.7" stroke="rgb(0,0,0)"  stroke-width="1.0"/>
<line x1="40.0" y1="128.7" x2="60.0" y2="94.0" stroke="rgb(0,0,0)"  stroke-width="1.0"/>
<line x1="49.2" y1="127.1" x2="63.2" y2="102.8" stroke="rgb(0,0,0)"  stroke-width="1.0"/>
<line x1="60.0" y1="94.0" x2="100.0" y2="94.0" stroke="rgb(0,0,0)"  stroke-width="1.0"/>
<line x1="100.0" y1="94.0" x2="120.0" y2="128.7" stroke="rgb(0,0,0)"  stroke-width="1.0"/>
<line x1="96.8" y1="102.8" x2="110.8" y2="127.1" stroke="rgb(0,0,0)"  stroke-width="1.0"/>
<line x1="120.0" y1="128.7" x2="100.0" y2="163.3" stroke="rgb(0,0,0)"  stroke-width="1.0"/>
<text x="230.269466" y="134.765224" fill="rgb(12,12,255)"  stroke="rgb(12,12,255)" stroke-width="1" font-size="16" >N</text>
<text x="174.219124" y="167.125904" fill="rgb(12,12,255)"  stroke="rgb(12,12,255)" stroke-width="1" font-size="16" >N</text>
<text x="174.219124" y="183.125904" fill="rgb(12,12,255)"  stroke="rgb(12,12,255)" stroke-width="1" font-size="16" >H</text>
<text x="174.000000" y="240.589075" fill="rgb(12,12,255)"  stroke="rgb(12,12,255)" stroke-width="1" font-size="16" >N</text>
<text x="174.000000" y="256.589075" fill="rgb(12,12,255)"  stroke="rgb(12,12,255)" stroke-width="1" font-size="16" >H</text>
<text x="154.000000" y="205.948059" fill="rgb(12,12,255)"  stroke="rgb(12,12,255)" stroke-width="1" font-size="16" >N</text>
<text x="22.000000" y="205.948059" fill="rgb(255,12,12)"  stroke="rgb(255,12,12)" stroke-width="1" font-size="16" >HO</text>
<text x="234.000000" y="275.230091" fill="rgb(255,12,12)"  stroke="rgb(255,12,12)" stroke-width="1" font-size="16" >O</text>
<title>MFCD01206765 - OBDepict</title>
</svg>
