<?xml version="1.0"?>
<svg xmlns="http://www.w3.org/2000/svg"
xmlns:xlink="http://www.w3.org/1999/xlink" xmlns:cml="http://www.xml-cml.org/schema" width="494.641" height="426.41" x="0" y="0" font-family="sans-serif" stroke="rgb(0,0,0)" stroke-width="1"  stroke-linecap="round">
<rect x="0%" y="0%" width="100%" height="100%" stroke-width="0" fill="rgb(255,255,255)"  />
<line x1="240.0" y1="247.8" x2="226.5" y2="271.2" stroke="rgb(0,0,0)"  stroke-width="1.0"/>
<line x1="280.0" y1="247.8" x2="293.5" y2="271.2" stroke="rgb(0,0,0)"  stroke-width="1.0"/>
<line x1="300.0" y1="213.2" x2="327.0" y2="213.2" stroke="rgb(0,0,0)"  stroke-width="1.0"/>
<line x1="343.0" y1="226.2" x2="343.0" y2="240.2" stroke="rgb(0,0,0)"  stroke-width="1.0"/>
<line x1="337.0" y1="226.2" x2="337.0" y2="240.2" stroke="rgb(0,0,0)"  stroke-width="1.0"/>
<line x1="353.0" y1="210.2" x2="367.0" y2="210.2" stroke="rgb(0,0,0)"  stroke-width="1.0"/>
<line x1="353.0" y1="216.2" x2="367.0" y2="216.2" stroke="rgb(0,0,0)"  stroke-width="1.0"/>
<line x1="340.0" y1="200.2" x2="340.0" y2="186.2" stroke="rgb(0,0,0)"  stroke-width="1.0"/>
<line x1="313.0" y1="279.5" x2="327.0" y2="279.5" stroke="rgb(0,0,0)"  stroke-width="1.0"/>
<line x1="313.0" y1="285.5" x2="327.0" y2="285.5" stroke="rgb(0,0,0)"  stroke-width="1.0"/>
<line x1="346.5" y1="293.7" x2="360.0" y2="317.1" stroke="rgb(0,0,0)"  stroke-width="1.0"/>
<line x1="400.0" y1="317.1" x2="413.5" y2="293.7" stroke="rgb(0,0,0)"  stroke-width="1.0"/>
<line x1="432.8" y1="286.4" x2="444.9" y2="293.4" stroke="rgb(0,0,0)"  stroke-width="1.0"/>
<line x1="429.8" y1="291.6" x2="441.9" y2="298.6" stroke="rgb(0,0,0)"  stroke-width="1.0"/>
<line x1="423.9" y1="269.7" x2="430.9" y2="257.6" stroke="rgb(0,0,0)"  stroke-width="1.0"/>
<line x1="429.1" y1="272.7" x2="436.1" y2="260.6" stroke="rgb(0,0,0)"  stroke-width="1.0"/>
<line x1="408.7" y1="276.0" x2="396.6" y2="269.0" stroke="rgb(0,0,0)"  stroke-width="1.0"/>
<line x1="180.0" y1="143.9" x2="166.5" y2="120.5" stroke="rgb(0,0,0)"  stroke-width="1.0"/>
<line x1="147.0" y1="109.3" x2="120.0" y2="109.3" stroke="rgb(0,0,0)"  stroke-width="1.0"/>
<line x1="60.0" y1="143.9" x2="46.5" y2="167.3" stroke="rgb(0,0,0)"  stroke-width="1.0"/>
<line x1="60.0" y1="74.6" x2="46.5" y2="51.3" stroke="rgb(0,0,0)"  stroke-width="1.0"/>
<line x1="240.0" y1="178.6" x2="220.0" y2="213.2" stroke="rgb(0,0,0)"  stroke-width="1.0"/>
<line x1="220.0" y1="213.2" x2="240.0" y2="247.8" stroke="rgb(0,0,0)"  stroke-width="1.0"/>
<line x1="229.2" y1="214.8" x2="243.2" y2="239.0" stroke="rgb(0,0,0)"  stroke-width="1.0"/>
<line x1="240.0" y1="247.8" x2="280.0" y2="247.8" stroke="rgb(0,0,0)"  stroke-width="1.0"/>
<line x1="280.0" y1="247.8" x2="300.0" y2="213.2" stroke="rgb(0,0,0)"  stroke-width="1.0"/>
<line x1="276.8" y1="239.0" x2="290.8" y2="214.8" stroke="rgb(0,0,0)"  stroke-width="1.0"/>
<line x1="300.0" y1="213.2" x2="280.0" y2="178.6" stroke="rgb(0,0,0)"  stroke-width="1.0"/>
<line x1="280.0" y1="178.6" x2="240.0" y2="178.6" stroke="rgb(0,0,0)"  stroke-width="1.0"/>
<line x1="274.0" y1="185.8" x2="246.0" y2="185.8" stroke="rgb(0,0,0)"  stroke-width="1.0"/>
<line x1="180.0" y1="143.9" x2="160.0" y2="178.6" stroke="rgb(0,0,0)"  stroke-width="1.0"/>
<line x1="160.0" y1="178.6" x2="180.0" y2="213.2" stroke="rgb(0,0,0)"  stroke-width="1.0"/>
<line x1="169.2" y1="180.2" x2="183.2" y2="204.4" stroke="rgb(0,0,0)"  stroke-width="1.0"/>
<line x1="180.0" y1="213.2" x2="220.0" y2="213.2" stroke="rgb(0,0,0)"  stroke-width="1.0"/>
<line x1="240.0" y1="178.6" x2="220.0" y2="143.9" stroke="rgb(0,0,0)"  stroke-width="1.0"/>
<line x1="220.0" y1="143.9" x2="180.0" y2="143.9" stroke="rgb(0,0,0)"  stroke-width="1.0"/>
<line x1="214.0" y1="151.1" x2="186.0" y2="151.1" stroke="rgb(0,0,0)"  stroke-width="1.0"/>
<line x1="360.0" y1="317.1" x2="400.0" y2="317.1" stroke="rgb(0,0,0)"  stroke-width="1.0"/>
<line x1="400.0" y1="317.1" x2="420.0" y2="351.8" stroke="rgb(0,0,0)"  stroke-width="1.0"/>
<line x1="396.8" y1="325.9" x2="410.8" y2="350.2" stroke="rgb(0,0,0)"  stroke-width="1.0"/>
<line x1="420.0" y1="351.8" x2="400.0" y2="386.4" stroke="rgb(0,0,0)"  stroke-width="1.0"/>
<line x1="400.0" y1="386.4" x2="360.0" y2="386.4" stroke="rgb(0,0,0)"  stroke-width="1.0"/>
<line x1="394.0" y1="379.2" x2="366.0" y2="379.2" stroke="rgb(0,0,0)"  stroke-width="1.0"/>
<line x1="360.0" y1="386.4" x2="340.0" y2="351.8" stroke="rgb(0,0,0)"  stroke-width="1.0"/>
<line x1="340.0" y1="351.8" x2="360.0" y2="317.1" stroke="rgb(0,0,0)"  stroke-width="1.0"/>
<line x1="349.2" y1="350.2" x2="363.2" y2="325.9" stroke="rgb(0,0,0)"  stroke-width="1.0"/>
<line x1="120.0" y1="109.3" x2="106.5" y2="132.7" stroke="rgb(0,0,0)"  stroke-width="1.0"/>
<line x1="86.8" y1="143.9" x2="60.0" y2="143.9" stroke="rgb(0,0,0)"  stroke-width="1.0"/>
<line x1="84.8" y1="136.7" x2="66.0" y2="136.7" stroke="rgb(0,0,0)"  stroke-width="1.0"/>
<line x1="60.0" y1="143.9" x2="46.5" y2="120.5" stroke="rgb(0,0,0)"  stroke-width="1.0"/>
<line x1="46.6" y1="97.9" x2="60.0" y2="74.6" stroke="rgb(0,0,0)"  stroke-width="1.0"/>
<line x1="53.8" y1="99.7" x2="63.2" y2="83.4" stroke="rgb(0,0,0)"  stroke-width="1.0"/>
<line x1="60.0" y1="74.6" x2="87.0" y2="74.6" stroke="rgb(0,0,0)"  stroke-width="1.0"/>
<line x1="106.6" y1="86.1" x2="120.0" y2="109.3" stroke="rgb(0,0,0)"  stroke-width="1.0"/>
<line x1="101.4" y1="91.4" x2="110.8" y2="107.7" stroke="rgb(0,0,0)"  stroke-width="1.0"/>
<text x="334.000000" y="221.205081" fill="rgb(178,178,0)"  stroke="rgb(178,178,0)" stroke-width="1" font-size="16" >S</text>
<text x="334.000000" y="261.205081" fill="rgb(255,12,12)"  stroke="rgb(255,12,12)" stroke-width="1" font-size="16" >O</text>
<text x="374.000000" y="221.205081" fill="rgb(255,12,12)"  stroke="rgb(255,12,12)" stroke-width="1" font-size="16" >O</text>
<text x="334.000000" y="181.205081" fill="rgb(255,12,12)"  stroke="rgb(255,12,12)" stroke-width="1" font-size="16" >OH</text>
<text x="294.000000" y="290.487113" fill="rgb(12,12,255)"  stroke="rgb(12,12,255)" stroke-width="1" font-size="16" >N</text>
<text x="334.000000" y="290.487113" fill="rgb(12,12,255)"  stroke="rgb(12,12,255)" stroke-width="1" font-size="16" >N</text>
<text x="414.000000" y="290.487113" fill="rgb(178,178,0)"  stroke="rgb(178,178,0)" stroke-width="1" font-size="16" >S</text>
<text x="448.641016" y="310.487113" fill="rgb(255,12,12)"  stroke="rgb(255,12,12)" stroke-width="1" font-size="16" >O</text>
<text x="434.000000" y="255.846097" fill="rgb(255,12,12)"  stroke="rgb(255,12,12)" stroke-width="1" font-size="16" >O</text>
<text x="367.358984" y="270.487113" fill="rgb(255,12,12)"  stroke="rgb(255,12,12)" stroke-width="1" font-size="16" >HO</text>
<text x="202.000000" y="290.487113" fill="rgb(255,12,12)"  stroke="rgb(255,12,12)" stroke-width="1" font-size="16" >HO</text>
<text x="154.000000" y="117.282032" fill="rgb(12,12,255)"  stroke="rgb(12,12,255)" stroke-width="1" font-size="16" >N</text>
<text x="154.000000" y="101.282032" fill="rgb(12,12,255)"  stroke="rgb(12,12,255)" stroke-width="1" font-size="16" >H</text>
<text x="94.000000" y="151.923048" fill="rgb(12,12,255)"  stroke="rgb(12,12,255)" stroke-width="1" font-size="16" >N</text>
<text x="34.000000" y="117.282032" fill="rgb(12,12,255)"  stroke="rgb(12,12,255)" stroke-width="1" font-size="16" >N</text>
<text x="94.000000" y="82.641016" fill="rgb(12,12,255)"  stroke="rgb(12,12,255)" stroke-width="1" font-size="16" >N</text>
<text x="22.000000" y="48.000000" fill="rgb(30,239,30)"  stroke="rgb(30,239,30)" stroke-width="1" font-size="16" >Cl</text>
<text x="22.000000" y="186.564065" fill="rgb(30,239,30)"  stroke="rgb(30,239,30)" stroke-width="1" font-size="16" >Cl</text>
<title>MFCD00071889 - OBDepict</title>
</svg>
