<?xml version="1.0"?>
<svg xmlns="http://www.w3.org/2000/svg"
xmlns:xlink="http://www.w3.org/1999/xlink" xmlns:cml="http://www.xml-cml.org/schema" width="489.717" height="366.842" x="0" y="0" font-family="sans-serif" stroke="rgb(0,0,0)" stroke-width="1"  stroke-linecap="round">
<rect x="0%" y="0%" width="100%" height="100%" stroke-width="0" fill="rgb(255,255,255)"  />
<line x1="390.6" y1="219.8" x2="360.9" y2="246.5" stroke="rgb(0,0,0)"  stroke-width="1.0"/>
<line x1="375.2" y1="173.5" x2="363.0" y2="166.5" stroke="rgb(0,0,0)"  stroke-width="1.0"/>
<line x1="342.0" y1="169.1" x2="318.6" y2="182.6" stroke="rgb(0,0,0)"  stroke-width="1.0"/>
<line x1="339.0" y1="163.9" x2="315.6" y2="177.4" stroke="rgb(0,0,0)"  stroke-width="1.0"/>
<line x1="317.1" y1="180.0" x2="282.5" y2="160.0" stroke="rgb(0,0,0)"  stroke-width="1.0"/>
<line x1="213.2" y1="120.0" x2="189.8" y2="106.5" stroke="rgb(0,0,0)"  stroke-width="1.0"/>
<line x1="167.3" y1="106.5" x2="143.9" y2="120.0" stroke="rgb(0,0,0)"  stroke-width="1.0"/>
<line x1="143.9" y1="120.0" x2="109.3" y2="100.0" stroke="rgb(0,0,0)"  stroke-width="1.0"/>
<line x1="423.0" y1="163.7" x2="428.6" y2="137.3" stroke="rgb(0,0,0)"  stroke-width="1.0"/>
<line x1="301.4" y1="300.1" x2="281.3" y2="318.1" stroke="rgb(0,0,0)"  stroke-width="1.0"/>
<line x1="390.6" y1="219.8" x2="387.8" y2="192.9" stroke="rgb(0,0,0)"  stroke-width="1.0"/>
<line x1="398.3" y1="174.7" x2="423.0" y2="163.7" stroke="rgb(0,0,0)"  stroke-width="1.0"/>
<line x1="423.0" y1="163.7" x2="440.9" y2="183.6" stroke="rgb(0,0,0)"  stroke-width="1.0"/>
<line x1="421.6" y1="173.0" x2="434.2" y2="187.0" stroke="rgb(0,0,0)"  stroke-width="1.0"/>
<line x1="443.2" y1="204.7" x2="436.2" y2="216.8" stroke="rgb(0,0,0)"  stroke-width="1.0"/>
<line x1="416.8" y1="225.4" x2="390.6" y2="219.8" stroke="rgb(0,0,0)"  stroke-width="1.0"/>
<line x1="416.3" y1="217.9" x2="398.0" y2="214.0" stroke="rgb(0,0,0)"  stroke-width="1.0"/>
<line x1="282.5" y1="160.0" x2="247.8" y2="180.0" stroke="rgb(0,0,0)"  stroke-width="1.0"/>
<line x1="247.8" y1="180.0" x2="213.2" y2="160.0" stroke="rgb(0,0,0)"  stroke-width="1.0"/>
<line x1="246.2" y1="170.8" x2="222.0" y2="156.8" stroke="rgb(0,0,0)"  stroke-width="1.0"/>
<line x1="213.2" y1="160.0" x2="213.2" y2="120.0" stroke="rgb(0,0,0)"  stroke-width="1.0"/>
<line x1="213.2" y1="120.0" x2="247.8" y2="100.0" stroke="rgb(0,0,0)"  stroke-width="1.0"/>
<line x1="222.0" y1="123.2" x2="246.2" y2="109.2" stroke="rgb(0,0,0)"  stroke-width="1.0"/>
<line x1="247.8" y1="100.0" x2="282.5" y2="120.0" stroke="rgb(0,0,0)"  stroke-width="1.0"/>
<line x1="282.5" y1="120.0" x2="282.5" y2="160.0" stroke="rgb(0,0,0)"  stroke-width="1.0"/>
<line x1="275.3" y1="126.0" x2="275.3" y2="154.0" stroke="rgb(0,0,0)"  stroke-width="1.0"/>
<line x1="109.3" y1="100.0" x2="74.6" y2="120.0" stroke="rgb(0,0,0)"  stroke-width="1.0"/>
<line x1="74.6" y1="120.0" x2="40.0" y2="100.0" stroke="rgb(0,0,0)"  stroke-width="1.0"/>
<line x1="73.0" y1="110.8" x2="48.8" y2="96.8" stroke="rgb(0,0,0)"  stroke-width="1.0"/>
<line x1="40.0" y1="100.0" x2="40.0" y2="60.0" stroke="rgb(0,0,0)"  stroke-width="1.0"/>
<line x1="40.0" y1="60.0" x2="74.6" y2="40.0" stroke="rgb(0,0,0)"  stroke-width="1.0"/>
<line x1="48.8" y1="63.2" x2="73.0" y2="49.2" stroke="rgb(0,0,0)"  stroke-width="1.0"/>
<line x1="74.6" y1="40.0" x2="109.3" y2="60.0" stroke="rgb(0,0,0)"  stroke-width="1.0"/>
<line x1="109.3" y1="60.0" x2="109.3" y2="100.0" stroke="rgb(0,0,0)"  stroke-width="1.0"/>
<line x1="102.1" y1="66.0" x2="102.1" y2="94.0" stroke="rgb(0,0,0)"  stroke-width="1.0"/>
<line x1="360.9" y1="246.5" x2="369.2" y2="285.7" stroke="rgb(0,0,0)"  stroke-width="1.0"/>
<line x1="369.2" y1="285.7" x2="339.5" y2="312.4" stroke="rgb(0,0,0)"  stroke-width="1.0"/>
<line x1="359.9" y1="284.3" x2="339.1" y2="303.1" stroke="rgb(0,0,0)"  stroke-width="1.0"/>
<line x1="339.5" y1="312.4" x2="301.4" y2="300.1" stroke="rgb(0,0,0)"  stroke-width="1.0"/>
<line x1="301.4" y1="300.1" x2="293.1" y2="261.0" stroke="rgb(0,0,0)"  stroke-width="1.0"/>
<line x1="307.2" y1="292.7" x2="301.4" y2="265.3" stroke="rgb(0,0,0)"  stroke-width="1.0"/>
<line x1="293.1" y1="261.0" x2="322.8" y2="234.2" stroke="rgb(0,0,0)"  stroke-width="1.0"/>
<line x1="322.8" y1="234.2" x2="360.9" y2="246.5" stroke="rgb(0,0,0)"  stroke-width="1.0"/>
<line x1="326.3" y1="242.9" x2="352.9" y2="251.5" stroke="rgb(0,0,0)"  stroke-width="1.0"/>
<text x="380.410162" y="188.000000" fill="rgb(12,12,255)"  stroke="rgb(12,12,255)" stroke-width="1" font-size="16" >N</text>
<text x="345.769145" y="168.000000" fill="rgb(12,12,255)"  stroke="rgb(12,12,255)" stroke-width="1" font-size="16" >N</text>
<text x="172.564065" y="108.000000" fill="rgb(255,12,12)"  stroke="rgb(255,12,12)" stroke-width="1" font-size="16" >O</text>
<text x="443.717204" y="201.456327" fill="rgb(12,12,255)"  stroke="rgb(12,12,255)" stroke-width="1" font-size="16" >N</text>
<text x="423.717204" y="236.097343" fill="rgb(12,12,255)"  stroke="rgb(12,12,255)" stroke-width="1" font-size="16" >N</text>
<text x="425.268447" y="132.604630" fill="rgb(178,178,0)"  stroke="rgb(178,178,0)" stroke-width="1" font-size="16" >SH</text>
<text x="253.688128" y="334.841773" fill="rgb(30,239,30)"  stroke="rgb(30,239,30)" stroke-width="1" font-size="16" >Cl</text>
<title>MFCD01132090 - OBDepict</title>
</svg>
