<?xml version="1.0"?>
<svg xmlns="http://www.w3.org/2000/svg"
xmlns:xlink="http://www.w3.org/1999/xlink" xmlns:cml="http://www.xml-cml.org/schema" width="494.857" height="406.681" x="0" y="0" font-family="sans-serif" stroke="rgb(0,0,0)" stroke-width="1"  stroke-linecap="round">
<rect x="0%" y="0%" width="100%" height="100%" stroke-width="0" fill="rgb(255,255,255)"  />
<line x1="154.3" y1="206.3" x2="177.7" y2="192.8" stroke="rgb(0,0,0)"  stroke-width="1.0"/>
<line x1="114.2" y1="328.6" x2="105.8" y2="354.3" stroke="rgb(0,0,0)"  stroke-width="1.0"/>
<line x1="79.8" y1="226.2" x2="40.0" y2="222.0" stroke="rgb(0,0,0)"  stroke-width="1.0"/>
<line x1="106.5" y1="196.5" x2="98.2" y2="157.4" stroke="rgb(0,0,0)"  stroke-width="1.0"/>
<line x1="81.6" y1="79.1" x2="76.0" y2="52.7" stroke="rgb(0,0,0)"  stroke-width="1.0"/>
<line x1="177.7" y1="192.8" x2="212.4" y2="212.8" stroke="rgb(0,0,0)"  stroke-width="1.0"/>
<line x1="281.7" y1="252.8" x2="305.0" y2="266.3" stroke="rgb(0,0,0)"  stroke-width="1.0"/>
<line x1="327.6" y1="266.3" x2="350.9" y2="252.8" stroke="rgb(0,0,0)"  stroke-width="1.0"/>
<line x1="350.9" y1="252.8" x2="350.9" y2="212.8" stroke="rgb(0,0,0)"  stroke-width="1.0"/>
<line x1="350.9" y1="212.8" x2="374.3" y2="199.3" stroke="rgb(0,0,0)"  stroke-width="1.0"/>
<line x1="106.5" y1="196.5" x2="131.2" y2="207.5" stroke="rgb(0,0,0)"  stroke-width="1.0"/>
<line x1="141.7" y1="225.7" x2="138.9" y2="252.6" stroke="rgb(0,0,0)"  stroke-width="1.0"/>
<line x1="138.9" y1="252.6" x2="99.8" y2="260.9" stroke="rgb(0,0,0)"  stroke-width="1.0"/>
<line x1="131.5" y1="246.8" x2="104.2" y2="252.6" stroke="rgb(0,0,0)"  stroke-width="1.0"/>
<line x1="99.8" y1="260.9" x2="79.8" y2="226.2" stroke="rgb(0,0,0)"  stroke-width="1.0"/>
<line x1="79.8" y1="226.2" x2="106.5" y2="196.5" stroke="rgb(0,0,0)"  stroke-width="1.0"/>
<line x1="89.1" y1="226.6" x2="107.9" y2="205.8" stroke="rgb(0,0,0)"  stroke-width="1.0"/>
<line x1="138.9" y1="252.6" x2="165.7" y2="282.3" stroke="rgb(0,0,0)"  stroke-width="1.0"/>
<line x1="165.7" y1="282.3" x2="153.3" y2="320.3" stroke="rgb(0,0,0)"  stroke-width="1.0"/>
<line x1="157.0" y1="285.8" x2="148.3" y2="312.4" stroke="rgb(0,0,0)"  stroke-width="1.0"/>
<line x1="153.3" y1="320.3" x2="114.2" y2="328.6" stroke="rgb(0,0,0)"  stroke-width="1.0"/>
<line x1="114.2" y1="328.6" x2="87.4" y2="298.9" stroke="rgb(0,0,0)"  stroke-width="1.0"/>
<line x1="115.5" y1="319.4" x2="96.8" y2="298.6" stroke="rgb(0,0,0)"  stroke-width="1.0"/>
<line x1="87.4" y1="298.9" x2="99.8" y2="260.9" stroke="rgb(0,0,0)"  stroke-width="1.0"/>
<line x1="98.2" y1="157.4" x2="60.2" y2="145.0" stroke="rgb(0,0,0)"  stroke-width="1.0"/>
<line x1="60.2" y1="145.0" x2="51.9" y2="105.9" stroke="rgb(0,0,0)"  stroke-width="1.0"/>
<line x1="66.0" y1="137.7" x2="60.2" y2="110.3" stroke="rgb(0,0,0)"  stroke-width="1.0"/>
<line x1="51.9" y1="105.9" x2="81.6" y2="79.1" stroke="rgb(0,0,0)"  stroke-width="1.0"/>
<line x1="81.6" y1="79.1" x2="119.6" y2="91.5" stroke="rgb(0,0,0)"  stroke-width="1.0"/>
<line x1="85.1" y1="87.8" x2="111.7" y2="96.5" stroke="rgb(0,0,0)"  stroke-width="1.0"/>
<line x1="119.6" y1="91.5" x2="128.0" y2="130.6" stroke="rgb(0,0,0)"  stroke-width="1.0"/>
<line x1="128.0" y1="130.6" x2="98.2" y2="157.4" stroke="rgb(0,0,0)"  stroke-width="1.0"/>
<line x1="118.7" y1="129.3" x2="97.9" y2="148.0" stroke="rgb(0,0,0)"  stroke-width="1.0"/>
<line x1="212.4" y1="212.8" x2="212.4" y2="252.8" stroke="rgb(0,0,0)"  stroke-width="1.0"/>
<line x1="212.4" y1="252.8" x2="247.0" y2="272.8" stroke="rgb(0,0,0)"  stroke-width="1.0"/>
<line x1="221.2" y1="249.5" x2="245.4" y2="263.5" stroke="rgb(0,0,0)"  stroke-width="1.0"/>
<line x1="247.0" y1="272.8" x2="281.7" y2="252.8" stroke="rgb(0,0,0)"  stroke-width="1.0"/>
<line x1="281.7" y1="252.8" x2="281.7" y2="212.8" stroke="rgb(0,0,0)"  stroke-width="1.0"/>
<line x1="274.5" y1="246.8" x2="274.5" y2="218.8" stroke="rgb(0,0,0)"  stroke-width="1.0"/>
<line x1="281.7" y1="212.8" x2="247.0" y2="192.8" stroke="rgb(0,0,0)"  stroke-width="1.0"/>
<line x1="247.0" y1="192.8" x2="212.4" y2="212.8" stroke="rgb(0,0,0)"  stroke-width="1.0"/>
<line x1="245.4" y1="202.0" x2="221.2" y2="216.0" stroke="rgb(0,0,0)"  stroke-width="1.0"/>
<line x1="396.8" y1="199.3" x2="420.2" y2="212.8" stroke="rgb(0,0,0)"  stroke-width="1.0"/>
<line x1="420.2" y1="212.8" x2="454.9" y2="192.8" stroke="rgb(0,0,0)"  stroke-width="1.0"/>
<line x1="454.9" y1="192.8" x2="454.9" y2="152.8" stroke="rgb(0,0,0)"  stroke-width="1.0"/>
<line x1="454.9" y1="152.8" x2="420.2" y2="132.8" stroke="rgb(0,0,0)"  stroke-width="1.0"/>
<line x1="420.2" y1="132.8" x2="385.6" y2="152.8" stroke="rgb(0,0,0)"  stroke-width="1.0"/>
<line x1="385.6" y1="152.8" x2="385.6" y2="179.8" stroke="rgb(0,0,0)"  stroke-width="1.0"/>
<text x="137.087918" y="220.773082" fill="rgb(12,12,255)"  stroke="rgb(12,12,255)" stroke-width="1" font-size="16" >N</text>
<text x="83.824741" y="374.680740" fill="rgb(255,12,12)"  stroke="rgb(255,12,12)" stroke-width="1" font-size="16" >HO</text>
<text x="55.280230" y="48.000000" fill="rgb(255,12,12)"  stroke="rgb(255,12,12)" stroke-width="1" font-size="16" >HO</text>
<text x="310.292999" y="280.773082" fill="rgb(255,12,12)"  stroke="rgb(255,12,12)" stroke-width="1" font-size="16" >O</text>
<text x="379.575031" y="200.773082" fill="rgb(12,12,255)"  stroke="rgb(12,12,255)" stroke-width="1" font-size="16" >N</text>
<title>SERM08 - OBDepict</title>
</svg>
