<?xml version="1.0"?>
<svg xmlns="http://www.w3.org/2000/svg"
xmlns:xlink="http://www.w3.org/1999/xlink" xmlns:cml="http://www.xml-cml.org/schema" width="591.586" height="316.622" x="0" y="0" font-family="sans-serif" stroke="rgb(0,0,0)" stroke-width="1"  stroke-linecap="round">
<rect x="0%" y="0%" width="100%" height="100%" stroke-width="0" fill="rgb(255,255,255)"  />
<line x1="463.4" y1="86.9" x2="443.4" y2="68.8" stroke="rgb(0,0,0)"  stroke-width="1.0"/>
<line x1="443.4" y1="68.8" x2="405.3" y2="81.2" stroke="rgb(0,0,0)"  stroke-width="1.0"/>
<line x1="405.3" y1="81.2" x2="385.3" y2="63.1" stroke="rgb(0,0,0)"  stroke-width="1.0"/>
<line x1="363.2" y1="58.4" x2="337.5" y2="66.8" stroke="rgb(0,0,0)"  stroke-width="1.0"/>
<line x1="261.5" y1="91.5" x2="223.4" y2="103.8" stroke="rgb(0,0,0)"  stroke-width="1.0"/>
<line x1="223.4" y1="103.8" x2="217.8" y2="130.3" stroke="rgb(0,0,0)"  stroke-width="1.0"/>
<line x1="281.9" y1="242.0" x2="295.4" y2="265.4" stroke="rgb(0,0,0)"  stroke-width="1.0"/>
<line x1="182.7" y1="199.0" x2="153.0" y2="225.8" stroke="rgb(0,0,0)"  stroke-width="1.0"/>
<line x1="178.6" y1="159.2" x2="143.9" y2="139.2" stroke="rgb(0,0,0)"  stroke-width="1.0"/>
<line x1="74.6" y1="99.2" x2="51.3" y2="85.7" stroke="rgb(0,0,0)"  stroke-width="1.0"/>
<line x1="178.6" y1="159.2" x2="203.2" y2="148.3" stroke="rgb(0,0,0)"  stroke-width="1.0"/>
<line x1="223.8" y1="152.6" x2="241.9" y2="172.7" stroke="rgb(0,0,0)"  stroke-width="1.0"/>
<line x1="241.9" y1="172.7" x2="221.9" y2="207.3" stroke="rgb(0,0,0)"  stroke-width="1.0"/>
<line x1="232.6" y1="174.3" x2="218.6" y2="198.5" stroke="rgb(0,0,0)"  stroke-width="1.0"/>
<line x1="221.9" y1="207.3" x2="182.7" y2="199.0" stroke="rgb(0,0,0)"  stroke-width="1.0"/>
<line x1="182.7" y1="199.0" x2="178.6" y2="159.2" stroke="rgb(0,0,0)"  stroke-width="1.0"/>
<line x1="189.3" y1="192.3" x2="186.4" y2="164.5" stroke="rgb(0,0,0)"  stroke-width="1.0"/>
<line x1="337.5" y1="66.8" x2="329.2" y2="105.9" stroke="rgb(0,0,0)"  stroke-width="1.0"/>
<line x1="329.2" y1="105.9" x2="291.2" y2="118.3" stroke="rgb(0,0,0)"  stroke-width="1.0"/>
<line x1="321.3" y1="100.9" x2="294.7" y2="109.6" stroke="rgb(0,0,0)"  stroke-width="1.0"/>
<line x1="291.2" y1="118.3" x2="261.5" y2="91.5" stroke="rgb(0,0,0)"  stroke-width="1.0"/>
<line x1="261.5" y1="91.5" x2="269.8" y2="52.4" stroke="rgb(0,0,0)"  stroke-width="1.0"/>
<line x1="269.8" y1="87.1" x2="275.6" y2="59.7" stroke="rgb(0,0,0)"  stroke-width="1.0"/>
<line x1="269.8" y1="52.4" x2="307.8" y2="40.0" stroke="rgb(0,0,0)"  stroke-width="1.0"/>
<line x1="307.8" y1="40.0" x2="337.5" y2="66.8" stroke="rgb(0,0,0)"  stroke-width="1.0"/>
<line x1="307.5" y1="49.4" x2="328.3" y2="68.1" stroke="rgb(0,0,0)"  stroke-width="1.0"/>
<line x1="241.9" y1="172.7" x2="281.9" y2="172.7" stroke="rgb(0,0,0)"  stroke-width="1.0"/>
<line x1="281.9" y1="172.7" x2="301.9" y2="207.3" stroke="rgb(0,0,0)"  stroke-width="1.0"/>
<line x1="278.6" y1="181.5" x2="292.6" y2="205.7" stroke="rgb(0,0,0)"  stroke-width="1.0"/>
<line x1="301.9" y1="207.3" x2="281.9" y2="242.0" stroke="rgb(0,0,0)"  stroke-width="1.0"/>
<line x1="281.9" y1="242.0" x2="241.9" y2="242.0" stroke="rgb(0,0,0)"  stroke-width="1.0"/>
<line x1="275.9" y1="234.8" x2="247.9" y2="234.8" stroke="rgb(0,0,0)"  stroke-width="1.0"/>
<line x1="241.9" y1="242.0" x2="221.9" y2="207.3" stroke="rgb(0,0,0)"  stroke-width="1.0"/>
<line x1="143.9" y1="139.2" x2="109.3" y2="159.2" stroke="rgb(0,0,0)"  stroke-width="1.0"/>
<line x1="109.3" y1="159.2" x2="74.6" y2="139.2" stroke="rgb(0,0,0)"  stroke-width="1.0"/>
<line x1="107.7" y1="150.0" x2="83.4" y2="136.0" stroke="rgb(0,0,0)"  stroke-width="1.0"/>
<line x1="74.6" y1="139.2" x2="74.6" y2="99.2" stroke="rgb(0,0,0)"  stroke-width="1.0"/>
<line x1="74.6" y1="99.2" x2="109.3" y2="79.2" stroke="rgb(0,0,0)"  stroke-width="1.0"/>
<line x1="83.4" y1="102.5" x2="107.7" y2="88.5" stroke="rgb(0,0,0)"  stroke-width="1.0"/>
<line x1="109.3" y1="79.2" x2="143.9" y2="99.2" stroke="rgb(0,0,0)"  stroke-width="1.0"/>
<line x1="143.9" y1="99.2" x2="143.9" y2="139.2" stroke="rgb(0,0,0)"  stroke-width="1.0"/>
<line x1="136.7" y1="105.2" x2="136.7" y2="133.2" stroke="rgb(0,0,0)"  stroke-width="1.0"/>
<line x1="485.1" y1="90.6" x2="510.1" y2="80.4" stroke="rgb(0,0,0)"  stroke-width="1.0"/>
<line x1="510.1" y1="80.4" x2="545.0" y2="99.9" stroke="rgb(0,0,0)"  stroke-width="1.0"/>
<line x1="545.0" y1="99.9" x2="551.6" y2="139.3" stroke="rgb(0,0,0)"  stroke-width="1.0"/>
<line x1="551.6" y1="139.3" x2="524.8" y2="169.1" stroke="rgb(0,0,0)"  stroke-width="1.0"/>
<line x1="524.8" y1="169.1" x2="484.9" y2="166.7" stroke="rgb(0,0,0)"  stroke-width="1.0"/>
<line x1="484.9" y1="166.7" x2="461.9" y2="134.0" stroke="rgb(0,0,0)"  stroke-width="1.0"/>
<line x1="461.9" y1="134.0" x2="469.4" y2="108.1" stroke="rgb(0,0,0)"  stroke-width="1.0"/>
<text x="467.085240" y="103.574313" fill="rgb(12,12,255)"  stroke="rgb(12,12,255)" stroke-width="1" font-size="16" >N</text>
<text x="369.591393" y="62.404544" fill="rgb(255,12,12)"  stroke="rgb(255,12,12)" stroke-width="1" font-size="16" >O</text>
<text x="209.105883" y="150.973168" fill="rgb(12,12,255)"  stroke="rgb(12,12,255)" stroke-width="1" font-size="16" >N</text>
<text x="22.000000" y="87.242633" fill="rgb(255,12,12)"  stroke="rgb(255,12,12)" stroke-width="1" font-size="16" >HO</text>
<text x="295.871107" y="284.622009" fill="rgb(255,12,12)"  stroke="rgb(255,12,12)" stroke-width="1" font-size="16" >OH</text>
<title>SERM07 - OBDepict</title>
</svg>
